<?xml version="1.0" encoding="UTF-8"?>
<!-- Generator: visioncortex VTracer 0.6.3 -->
<svg version="1.1" xmlns="http://www.w3.org/2000/svg" width="1280" height="463">
<path d="M0 0 C0.71 0.16 1.43 0.33 2.17 0.5 C4.98 1 7.5 1.1 10.35 1.07 C11.4 1.06 12.44 1.05 13.52 1.04 C14.64 1.02 15.75 1.01 16.91 0.99 C19.28 0.97 21.66 0.96 24.04 0.94 C27.77 0.91 31.51 0.87 35.25 0.83 C38.87 0.79 42.48 0.76 46.09 0.74 C47.21 0.72 48.33 0.7 49.48 0.69 C50.53 0.68 51.57 0.68 52.65 0.68 C53.56 0.67 54.48 0.66 55.42 0.65 C58.6 1.08 60.46 2.06 63 4 C63.64 7.32 63.64 7.32 63.69 11.12 C63.73 13.42 63.82 15.71 64 18 C64.66 18.33 65.32 18.66 66 19 C66.6 21.4 66.6 21.4 67.06 24.38 C67.54 27.39 68.03 30.09 69 33 C69.07 34.56 69.09 36.13 69.06 37.69 C69.05 38.5 69.04 39.3 69.04 40.14 C69.02 41.06 69.02 41.06 69 42 C69.66 42 70.32 42 71 42 C71.05 42.84 71.1 43.69 71.15 44.55 C71.26 46.2 71.26 46.2 71.38 47.88 C71.48 49.51 71.48 49.51 71.59 51.18 C71.73 54.13 71.73 54.13 74 56 C74.38 58.33 74.71 60.66 75 63 C75.33 63.99 75.66 64.98 76 66 C74 69 74 69 73 70 C74.32 70 75.64 70 77 70 C77.07 70.89 77.07 70.89 77.15 71.79 C77.59 76.75 77.59 76.75 79 81.5 C80.27 84.69 80.48 87.71 80.75 91.11 C80.81 93.01 80.81 93.01 82 94 C82.23 95.99 82.41 98 82.56 100 C82.65 101.09 82.73 102.19 82.82 103.31 C83 106 83 106 83 107 C83.66 107.33 84.32 107.66 85 108 C85.34 109.89 85.34 109.89 85.5 112.25 C85.74 114.97 85.98 116.95 87 119.5 C88.27 122.69 88.48 125.71 88.75 129.11 C88.81 131.01 88.81 131.01 90 132 C90.23 134.02 90.41 136.04 90.56 138.06 C90.65 139.17 90.73 140.27 90.82 141.41 C90.88 142.26 90.94 143.12 91 144 C91.66 144 92.32 144 93 144 C93.06 144.7 93.12 145.4 93.18 146.12 C93.27 147.03 93.35 147.94 93.44 148.88 C93.56 150.23 93.56 150.23 93.68 151.62 C93.87 154.01 93.87 154.01 95 156 C94.67 156.99 94.34 157.98 94 159 C94.66 159 95.32 159 96 159 C96.22 160.64 96.22 160.64 96.44 162.31 C96.88 165.93 96.88 165.93 98 169 C98.97 172.7 98.95 175.29 98 179 C98.66 179.33 99.32 179.66 100 180 C99.67 180.99 99.34 181.98 99 183 C99.66 183 100.32 183 101 183 C101.06 183.59 101.12 184.18 101.18 184.79 C101.62 188.91 102.09 192.96 103 197 C103.33 197 103.66 197 104 197 C104.22 198.36 104.22 198.36 104.44 199.75 C104.74 201.48 105.06 203.21 105.5 204.91 C106.22 207.91 106.43 210.92 106.72 213.98 C106.9 216.06 106.9 216.06 108 218 C107.67 218.99 107.34 219.98 107 221 C107.66 221 108.32 221 109 221 C109.66 224.96 110.32 228.92 111 233 C111.33 233 111.66 233 112 233 C112 236.63 112 240.26 112 244 C112.66 244.33 113.32 244.66 114 245 C114.31 246.82 114.31 246.82 114.44 249.12 C114.83 253.58 116.2 256.89 118 261 C119.55 266.91 120.28 272.88 120.75 278.97 C120.89 281.06 120.89 281.06 122 283 C121.67 283.66 121.34 284.32 121 285 C121.66 285 122.32 285 123 285 C123.05 285.76 123.1 286.52 123.15 287.3 C123.26 288.79 123.26 288.79 123.38 290.31 C123.48 291.79 123.48 291.79 123.59 293.3 C123.84 296.22 123.84 296.22 126 299 C126.26 301.69 126.09 304.29 126 307 C126.66 307 127.32 307 128 307 C128.07 308.25 128.07 308.25 128.15 309.52 C128.26 311.15 128.26 311.15 128.38 312.81 C128.44 313.89 128.51 314.97 128.59 316.08 C128.81 319.19 128.81 319.19 131 322 C131.39 324.32 131.73 326.66 132 329 C132.33 329 132.66 329 133 329 C132.84 330.13 132.67 331.27 132.5 332.44 C131.77 336.07 131.77 336.07 133 339 C133.33 338.01 133.66 337.02 134 336 C134.05 336.59 134.1 337.18 134.15 337.79 C134.57 342.27 135.29 345.83 137 350 C137.22 351.41 137.4 352.83 137.56 354.25 C137.58 357.79 137.58 357.79 139 359 C139.29 362.04 139.45 365.07 139.62 368.12 C139.81 371.19 139.81 371.19 142 374 C142.37 376.33 142.71 378.66 143 381 C143.33 381.99 143.66 382.98 144 384 C144.54 387.12 145.02 390.25 145.5 393.38 C145.73 395.92 145.73 395.92 147 397 C147.28 400.07 147.45 403.14 147.62 406.21 C147.73 409.14 147.73 409.14 150 411 C150.43 412.98 150.77 414.99 151.06 417 C151.59 421.14 151.59 421.14 153 425 C153.31 427.33 153.51 429.66 153.72 432 C153.8 434 153.8 434 155 435 C155.28 438.36 155.45 441.72 155.62 445.09 C155.75 446.05 155.87 447.01 156 448 C156.66 448.33 157.32 448.66 158 449 C137.54 449 117.08 449 96 449 C93.79 440.16 91.79 431.85 90.5 422.9 C90.16 420.07 90.16 420.07 89 418 C88.68 415.58 88.39 413.17 88.12 410.75 C87.36 404.16 86.19 397.75 84.73 391.27 C83.84 387.27 83.12 383.25 82.43 379.21 C82.02 376.84 82.02 376.84 81 374 C80.45 370.39 79.98 366.77 79.5 363.15 C79.18 360.11 79.18 360.11 78 358 C77.72 354.89 77.55 351.77 77.38 348.65 C77.25 347.78 77.13 346.9 77 346 C76.34 345.67 75.68 345.34 75 345 C75.33 344.01 75.66 343.02 76 342 C76 340.68 76 339.36 76 338 C64.56 338.08 53.12 338.18 41.68 338.29 C36.37 338.34 31.06 338.38 25.75 338.42 C20.63 338.46 15.5 338.5 10.38 338.56 C8.42 338.58 6.47 338.59 4.51 338.6 C1.77 338.62 -0.96 338.65 -3.69 338.68 C-4.92 338.68 -4.92 338.68 -6.17 338.69 C-10.55 338.58 -10.55 338.58 -14 341 C-16.29 348.71 -16.92 357.06 -18 365 C-18.66 365 -19.32 365 -20 365 C-20.07 366.7 -20.07 366.7 -20.15 368.43 C-20.22 369.91 -20.3 371.39 -20.38 372.88 C-20.41 373.62 -20.44 374.37 -20.47 375.14 C-20.77 380.77 -20.77 380.77 -23 383 C-23.28 385.35 -23.45 387.7 -23.56 390.06 C-23.9 396.9 -23.9 396.9 -25 398 C-25.54 401.36 -25.97 404.72 -26.4 408.09 C-26.6 409.05 -26.8 410.01 -27 411 C-27.66 411.33 -28.32 411.66 -29 412 C-29 415.63 -29 419.26 -29 423 C-29.66 422.67 -30.32 422.34 -31 422 C-30.5 423.49 -30.5 423.49 -30 425 C-30.33 425.66 -30.66 426.32 -31 427 C-31.31 429.85 -31.51 432.7 -31.72 435.57 C-32 438 -32 438 -33 439 C-33.21 440.49 -33.37 442 -33.5 443.5 C-33.89 447.89 -33.89 447.89 -35 449 C-36.84 449.09 -38.69 449.12 -40.53 449.11 C-41.71 449.11 -42.89 449.11 -44.11 449.11 C-45.39 449.11 -46.68 449.1 -48 449.1 C-49.97 449.1 -49.97 449.1 -51.97 449.09 C-55.45 449.09 -58.94 449.08 -62.42 449.07 C-65.97 449.06 -69.52 449.05 -73.08 449.05 C-80.05 449.04 -87.03 449.02 -94 449 C-96.11 444.41 -96.11 444.41 -95.12 440.69 C-94.75 439.8 -94.38 438.91 -94 438 C-94.66 437.34 -95.32 436.68 -96 436 C-95.01 436 -94.02 436 -93 436 C-93 434.02 -93 432.04 -93 430 C-92.34 430 -91.68 430 -91 430 C-91.18 429.44 -91.36 428.89 -91.55 428.32 C-92.08 425.58 -91.76 423.66 -91.19 420.94 C-91.02 420.08 -90.84 419.22 -90.67 418.34 C-90 416 -90 416 -88 413 C-88.66 412.67 -89.32 412.34 -90 412 C-89.34 412 -88.68 412 -88 412 C-87.95 411.31 -87.9 410.63 -87.85 409.92 C-87.78 409.02 -87.7 408.12 -87.62 407.19 C-87.52 405.85 -87.52 405.85 -87.41 404.48 C-87 402 -87 402 -85 399 C-85.66 398.67 -86.32 398.34 -87 398 C-86.34 398 -85.68 398 -85 398 C-85.04 397.15 -85.08 396.31 -85.12 395.44 C-84.99 391.66 -84.08 388.62 -83 385 C-82.63 382.67 -82.29 380.34 -82 378 C-81.34 378 -80.68 378 -80 378 C-80 377.01 -80 376.02 -80 375 C-80.66 374.67 -81.32 374.34 -82 374 C-81.34 374 -80.68 374 -80 374 C-79.91 373.11 -79.91 373.11 -79.82 372.21 C-79.73 371.42 -79.65 370.63 -79.56 369.81 C-79.48 369.04 -79.4 368.26 -79.32 367.46 C-78.73 362.92 -77.65 358.55 -76.5 354.12 C-75.39 349.75 -74.51 345.48 -74 341 C-73.34 341 -72.68 341 -72 341 C-72.21 340.36 -72.41 339.72 -72.62 339.06 C-73.29 333.6 -72.04 328.56 -69 324 C-69.66 323.67 -70.32 323.34 -71 323 C-70.34 323 -69.68 323 -69 323 C-68.83 321.4 -68.67 319.79 -68.5 318.19 C-68.41 317.29 -68.31 316.4 -68.22 315.48 C-67.96 312.92 -67.96 312.92 -68 310 C-67.34 309.67 -66.68 309.34 -66 309 C-66 307.02 -66 305.04 -66 303 C-65.34 303 -64.68 303 -64 303 C-64.18 302.45 -64.37 301.9 -64.56 301.33 C-65.09 298.52 -64.69 296.53 -64.06 293.75 C-63.87 292.86 -63.67 291.97 -63.47 291.05 C-63.24 290.03 -63.24 290.03 -63 289 C-62.34 289 -61.68 289 -61 289 C-61.18 288.45 -61.37 287.89 -61.56 287.32 C-62.09 284.54 -61.69 282.63 -61.06 279.88 C-60.27 276.47 -60.27 276.47 -60 273 C-60 272.34 -60 271.68 -60 271 C-59.34 271 -58.68 271 -58 271 C-58 269.02 -58 267.04 -58 265 C-57.34 265 -56.68 265 -56 265 C-56.18 264.45 -56.37 263.9 -56.56 263.33 C-57.09 260.52 -56.69 258.53 -56.06 255.75 C-55.87 254.86 -55.67 253.97 -55.47 253.05 C-55.24 252.03 -55.24 252.03 -55 251 C-54.34 251 -53.68 251 -53 251 C-53.18 250.43 -53.37 249.87 -53.56 249.29 C-54.07 246.65 -53.73 245.02 -53.06 242.44 C-52.38 239.77 -52 237.78 -52 235 C-52 234.34 -52 233.68 -52 233 C-51.34 233 -50.68 233 -50 233 C-50.04 232.13 -50.08 231.27 -50.12 230.38 C-50 226.88 -49.12 224.29 -48 221 C-48.33 220.34 -48.66 219.68 -49 219 C-48.34 219 -47.68 219 -47 219 C-47 217.02 -47 215.04 -47 213 C-46.34 213 -45.68 213 -45 213 C-45.18 212.44 -45.37 211.88 -45.56 211.3 C-46.07 208.62 -45.72 206.88 -45.06 204.25 C-44.77 203.05 -44.77 203.05 -44.47 201.83 C-44.32 201.22 -44.16 200.62 -44 200 C-43.34 200 -42.68 200 -42 200 C-42.18 199.44 -42.37 198.88 -42.55 198.31 C-43.08 195.59 -42.73 193.76 -42.12 191.06 C-41.94 190.23 -41.76 189.39 -41.57 188.54 C-41.29 187.28 -41.29 187.28 -41 186 C-40.66 184.33 -40.33 182.67 -40 181 C-39.67 179.33 -39.33 177.67 -39 176 C-38.34 176 -37.68 176 -37 176 C-37.21 175.36 -37.41 174.72 -37.62 174.06 C-38.15 169.79 -37.09 166.13 -36 162 C-35.34 162 -34.68 162 -34 162 C-34.19 161.46 -34.39 160.91 -34.59 160.35 C-35.12 157.33 -34.49 155.31 -33.62 152.38 C-33.35 151.41 -33.07 150.45 -32.79 149.46 C-32 147 -32 147 -31 145 C-31.66 144.67 -32.32 144.34 -33 144 C-32.34 144 -31.68 144 -31 144 C-30.94 143.3 -30.88 142.6 -30.82 141.88 C-30.69 140.52 -30.69 140.52 -30.56 139.12 C-30.44 137.77 -30.44 137.77 -30.32 136.38 C-30 134 -30 134 -29 132 C-29.66 131.34 -30.32 130.68 -31 130 C-30.01 130 -29.02 130 -28 130 C-28 128.02 -28 126.04 -28 124 C-27.34 124 -26.68 124 -26 124 C-26.18 123.43 -26.36 122.87 -26.55 122.28 C-27.06 119.69 -26.8 118.05 -26.19 115.5 C-26.02 114.75 -25.84 113.99 -25.67 113.22 C-25 110.98 -24.1 109.05 -23 107 C-23.66 106.67 -24.32 106.34 -25 106 C-24.34 106 -23.68 106 -23 106 C-22.93 104.97 -22.93 104.97 -22.85 103.92 C-22.74 102.57 -22.74 102.57 -22.62 101.19 C-22.52 99.85 -22.52 99.85 -22.41 98.48 C-22 96 -22 96 -20 93 C-20.66 92.67 -21.32 92.34 -22 92 C-21.34 92 -20.68 92 -20 92 C-20.04 91.13 -20.08 90.27 -20.12 89.38 C-19.99 85.83 -19.16 83.33 -18 80 C-17.62 77.67 -17.28 75.34 -17 73 C-16.34 73 -15.68 73 -15 73 C-15.31 72.04 -15.31 72.04 -15.62 71.06 C-16.29 65.6 -15.04 60.56 -12 56 C-12.66 55.67 -13.32 55.34 -14 55 C-13.34 55 -12.68 55 -12 55 C-12.04 54.13 -12.08 53.27 -12.12 52.38 C-11.99 48.83 -11.14 46.34 -10 43 C-9.56 40.34 -9.28 37.69 -9 35 C-8.34 35 -7.68 35 -7 35 C-7.31 34.04 -7.31 34.04 -7.62 33.06 C-8.15 28.79 -7.09 25.13 -6 21 C-5.34 21 -4.68 21 -4 21 C-4 20.01 -4 19.02 -4 18 C-4.66 17.67 -5.32 17.34 -6 17 C-5.34 17 -4.68 17 -4 17 C-3.93 15.97 -3.93 15.97 -3.85 14.92 C-3.78 14.02 -3.7 13.12 -3.62 12.19 C-3.56 11.29 -3.49 10.4 -3.41 9.48 C-3 7 -3 7 -1 4 C-1.99 3.5 -1.99 3.5 -3 3 C-2.34 3 -1.68 3 -1 3 C-0.67 2.01 -0.34 1.02 0 0 Z M61 5 C61 7.31 61 9.62 61 12 C61.33 12 61.66 12 62 12 C62 9.69 62 7.38 62 5 C61.67 5 61.34 5 61 5 Z M64 20 C64 21.65 64 23.3 64 25 C64.33 25 64.66 25 65 25 C65 23.35 65 21.7 65 20 C64.67 20 64.34 20 64 20 Z M72 56 C72 58.31 72 60.62 72 63 C72.33 63 72.66 63 73 63 C73 60.69 73 58.38 73 56 C72.67 56 72.34 56 72 56 Z M80 99 C81 101 81 101 81 101 Z M30 100 C27.99 105.78 27.78 110.9 28 117 C27.34 117 26.68 117 26 117 C25.67 121.95 25.34 126.9 25 132 C24.34 132 23.68 132 23 132 C23 135.96 23 139.92 23 144 C22.34 144 21.68 144 21 144 C20.88 145.09 20.76 146.17 20.63 147.29 C20.46 148.73 20.29 150.18 20.12 151.62 C20.01 152.69 20.01 152.69 19.89 153.79 C19.37 158.1 18.4 161.87 17 166 C16.66 168.84 16.5 171.66 16.34 174.51 C16 177 16 177 14 180 C13.58 182.71 13.58 182.71 13.44 185.62 C13.1 190.9 13.1 190.9 12 192 C11.71 194.97 11.55 197.94 11.38 200.92 C11 203.97 10.16 206.18 9 209 C8.66 211.54 8.5 214.04 8.34 216.6 C8 219 8 219 7 220.86 C5.56 223.94 5.6 226.81 5.44 230.19 C5.1 236.9 5.1 236.9 4 238 C3.6 240.18 3.26 242.37 2.94 244.56 C2.67 246.36 2.67 246.36 2.4 248.19 C2.27 249.12 2.14 250.05 2 251 C1.01 251.33 0.02 251.66 -1 252 C-2 258.53 -2 258.53 -1 265 C-1.66 265 -2.32 265 -3 265 C-3 265.99 -3 266.98 -3 268 C-3.33 268 -3.66 268 -4 268 C-5.71 280.24 -5.71 280.24 -3 292 C19.77 292 42.54 292 66 292 C66 285.8 66 281.93 64.62 276.25 C63.26 270.34 62.26 264.46 61.43 258.45 C61.25 256.06 61.25 256.06 60 255 C59.79 253.02 59.58 251.05 59.38 249.07 C58.89 245.15 58.24 241.27 57.56 237.38 C57.44 236.66 57.32 235.94 57.19 235.21 C56.59 231.82 55.88 228.59 54.94 225.28 C54.14 222.48 53.67 220.01 53.44 217.12 C53.39 214.27 53.39 214.27 52 212 C51.74 210.1 51.49 208.21 51.28 206.3 C50.82 202.54 50.19 198.8 49.56 195.06 C49.43 194.27 49.3 193.48 49.16 192.67 C48.27 187.4 47.21 182.2 46 177 C45.65 175 45.31 173 45 171 C44.34 171 43.68 171 43 171 C43.28 169.58 43.28 169.58 43.56 168.12 C44.29 165.1 44.29 165.1 43 163 C42.78 161.46 42.59 159.92 42.44 158.38 C42.35 157.56 42.27 156.74 42.18 155.9 C42.12 155.27 42.06 154.65 42 154 C41.34 154 40.68 154 40 154 C40.18 153.28 40.36 152.56 40.55 151.82 C41.02 148.87 40.83 146.86 40.26 143.95 C40.08 143.03 39.9 142.1 39.71 141.14 C39.52 140.19 39.33 139.23 39.12 138.25 C38.94 137.28 38.75 136.31 38.56 135.31 C38.02 130.81 38.02 130.81 36 127 C35.6 124.31 35.25 121.64 34.94 118.94 C34.85 118.18 34.76 117.42 34.66 116.64 C34.44 114.76 34.22 112.88 34 111 C33.34 111 32.68 111 32 111 C32.21 110.48 32.41 109.97 32.62 109.44 C33.16 105.97 32.08 103.29 31 100 C30.67 100 30.34 100 30 100 Z M26 106 C26 108.97 26 111.94 26 115 C26.33 115 26.66 115 27 115 C27 112.03 27 109.06 27 106 C26.67 106 26.34 106 26 106 Z M21 139 C22 142 22 142 22 142 Z M19 147 C20 149 20 149 20 149 Z M18 149 C18 152.63 18 156.26 18 160 C18.33 160 18.66 160 19 160 C19 156.37 19 152.74 19 149 C18.67 149 18.34 149 18 149 Z M15 165 C15 168.63 15 172.26 15 176 C15.33 176 15.66 176 16 176 C16 172.37 16 168.74 16 165 C15.67 165 15.34 165 15 165 Z M95 168 C95 169.65 95 171.3 95 173 C95.33 173 95.66 173 96 173 C96 171.35 96 169.7 96 168 C95.67 168 95.34 168 95 168 Z M10 194 C11 198 11 198 11 198 Z M8 199 C8 200.98 8 202.96 8 205 C8.33 205 8.66 205 9 205 C9 203.02 9 201.04 9 199 C8.67 199 8.34 199 8 199 Z M7 208 C7 210.97 7 213.94 7 217 C7.33 217 7.66 217 8 217 C8 214.03 8 211.06 8 208 C7.67 208 7.34 208 7 208 Z M103 208 C104 210 104 210 104 210 Z M5 219 C6 222 6 222 6 222 Z M4 222 C5 224 5 224 5 224 Z M-3 260 C-2 264 -2 264 -2 264 Z M118 272 C119 274 119 274 119 274 Z M118 277 C119 280 119 280 119 280 Z M-6 279 C-5 281 -5 281 -5 281 Z M123 297 C124 299 124 299 124 299 Z M127 321 C128 323 128 323 128 323 Z M-17 339 C-16 341 -16 341 -16 341 Z M-20 355 C-20 357.64 -20 360.28 -20 363 C-19.67 363 -19.34 363 -19 363 C-19 360.36 -19 357.72 -19 355 C-19.33 355 -19.66 355 -20 355 Z M137 361 C137 363.64 137 366.28 137 369 C137.33 369 137.66 369 138 369 C138 366.36 138 363.72 138 361 C137.67 361 137.34 361 137 361 Z M-23 368 C-23 371.3 -23 374.6 -23 378 C-22.67 378 -22.34 378 -22 378 C-22 374.7 -22 371.4 -22 368 C-22.33 368 -22.66 368 -23 368 Z M138 372 C139 374 139 374 139 374 Z M140 377 C141 380 141 380 141 380 Z M-23 379 C-22 381 -22 381 -22 381 Z M141 382 C142 384 142 384 142 384 Z M-30 402 C-30 403.98 -30 405.96 -30 408 C-29.67 408 -29.34 408 -29 408 C-29 406.02 -29 404.04 -29 402 C-29.33 402 -29.66 402 -30 402 Z M149 421 C149 422.65 149 424.3 149 426 C149.66 425.67 150.32 425.34 151 425 C150.34 423.68 149.68 422.36 149 421 Z M-33 422 C-32 425 -32 425 -32 425 Z M153 443 C154 445 154 445 154 445 Z " fill="#67988C" transform="translate(101,5)"/>
<path d="M0 0 C30.2 0.5 30.2 0.5 61 1 C61 1.66 61 2.32 61 3 C61.66 3 62.32 3 63 3 C63 54.15 63 105.3 63 158 C65.48 155.52 65.48 155.52 68 153 C70.77 150.58 73.39 148.36 76.56 146.5 C79.49 144.7 81.65 142.49 84 140 C84.33 140.33 84.66 140.66 85 141 C87.05 140.59 87.05 140.59 89 140 C89 139.34 89 138.68 89 138 C90.65 137.67 92.3 137.34 94 137 C94 136.34 94 135.68 94 135 C95.98 134.67 97.96 134.34 100 134 C100 133.34 100 132.68 100 132 C100.8 131.69 101.61 131.38 102.44 131.06 C104.89 130.24 104.89 130.24 106 129 C108.33 128.96 110.67 128.96 113 129 C113 128.34 113 127.68 113 127 C113.89 126.87 114.78 126.73 115.7 126.6 C117.46 126.33 117.46 126.33 119.25 126.06 C120.99 125.8 120.99 125.8 122.77 125.54 C125.8 125.09 125.8 125.09 127.89 124.47 C130.3 123.93 132.48 123.87 134.95 123.87 C136.34 123.87 136.34 123.87 137.77 123.86 C138.73 123.87 139.69 123.87 140.69 123.88 C141.66 123.87 142.64 123.87 143.64 123.86 C144.57 123.86 145.49 123.87 146.45 123.87 C147.72 123.87 147.72 123.87 149.02 123.87 C151 124 151 124 152 125 C153.07 125.12 154.14 125.25 155.25 125.38 C164.48 126.91 171.82 135.36 178 142 C178 142.66 178 143.32 178 144 C178.66 144.33 179.32 144.66 180 145 C180 146.32 180 147.64 180 149 C180.66 149 181.32 149 182 149 C182.31 149.8 182.62 150.61 182.94 151.44 C183.76 153.89 183.76 153.89 185 155 C185.28 157.29 185.45 159.57 185.62 161.87 C185.83 164.21 185.83 164.21 188 166 C188.28 168.28 188.45 170.58 188.56 172.88 C188.72 177.44 188.72 177.44 189.51 181.92 C190.05 184.22 190.12 186.25 190.12 188.62 C190.13 189.54 190.13 190.47 190.13 191.43 C190.13 192.44 190.12 193.46 190.12 194.5 C190.12 196.13 190.12 196.13 190.12 197.78 C190.12 201.42 190.12 205.05 190.11 208.69 C190.11 211.29 190.11 213.89 190.11 216.49 C190.11 222.1 190.11 227.71 190.11 233.31 C190.1 241.42 190.09 249.53 190.09 257.64 C190.09 270.79 190.08 283.94 190.08 297.09 C190.07 309.87 190.06 322.65 190.05 335.43 C190.05 336.21 190.05 337 190.05 337.81 C190.05 341.76 190.05 345.71 190.05 349.67 C190.04 382.44 190.02 415.22 190 448 C181.93 448.02 173.87 448.04 165.8 448.05 C162.06 448.06 158.31 448.06 154.56 448.08 C150.95 448.09 147.34 448.09 143.73 448.09 C142.35 448.1 140.97 448.1 139.59 448.11 C137.66 448.11 135.73 448.11 133.8 448.11 C132.71 448.12 131.61 448.12 130.47 448.12 C128 448 128 448 127 447 C126.91 445.66 126.88 444.31 126.88 442.97 C126.88 441.66 126.88 441.66 126.88 440.32 C126.88 439.35 126.89 438.37 126.89 437.37 C126.89 435.84 126.89 435.84 126.89 434.27 C126.9 430.81 126.91 427.35 126.92 423.9 C126.92 421.43 126.92 418.96 126.93 416.49 C126.93 411.16 126.94 405.83 126.96 400.5 C126.97 392.78 126.98 385.07 126.99 377.35 C127 364.82 127.02 352.28 127.03 339.75 C127.04 339 127.04 338.25 127.04 337.48 C127.05 326.84 127.07 316.2 127.09 305.56 C127.09 304.81 127.09 304.06 127.1 303.29 C127.1 302.54 127.1 301.8 127.1 301.03 C127.12 288.55 127.14 276.08 127.15 263.6 C127.15 255.91 127.17 248.22 127.19 240.52 C127.2 234.62 127.21 228.72 127.21 222.81 C127.21 220.39 127.22 217.98 127.22 215.56 C127.24 212.25 127.24 208.95 127.23 205.64 C127.24 204.69 127.25 203.74 127.25 202.75 C127.22 195.1 126.47 187.76 122.5 181.06 C122.08 180.33 121.65 179.6 121.22 178.85 C119.25 175.86 117.27 174.35 114 173 C111.88 172.73 111.88 172.73 109.67 172.8 C108.87 172.81 108.07 172.82 107.25 172.82 C106.42 172.84 105.6 172.86 104.75 172.88 C103.91 172.88 103.07 172.89 102.2 172.9 C100.14 172.93 98.07 172.96 96 173 C96 173.33 96 173.66 96 174 C95.4 174.11 94.79 174.22 94.17 174.33 C89.68 175.22 86.53 175.96 83 179 C77.44 182 77.44 182 75 182 C74.67 182.99 74.34 183.98 74 185 C72.34 185.68 70.67 186.35 69 187 C68.34 187.99 67.68 188.98 67 190 C66.01 190 65.02 190 64 190 C63.67 275.14 63.34 360.28 63 448 C42.54 448 22.08 448 1 448 C1 442.42 1 436.83 1.01 431.08 C1.03 379.94 1.04 328.79 1.05 277.65 C1.05 270.95 1.05 264.26 1.05 257.56 C1.06 256.56 1.06 256.56 1.06 255.54 C1.06 233.92 1.07 212.3 1.08 190.69 C1.09 167.85 1.09 145.01 1.09 122.18 C1.1 108.49 1.1 94.8 1.11 81.12 C1.11 71.74 1.11 62.37 1.11 53 C1.11 47.58 1.11 42.16 1.12 36.75 C1.12 31.8 1.12 26.85 1.12 21.9 C1.12 20.1 1.12 18.3 1.12 16.5 C1.13 14.07 1.13 11.64 1.12 9.21 C1.13 8.5 1.13 7.79 1.13 7.06 C1.16 3.41 1.16 3.41 0 0 Z M61 6 C61 52.53 61 99.06 61 147 C61.33 147 61.66 147 62 147 C62 100.47 62 53.94 62 6 C61.67 6 61.34 6 61 6 Z M183 160 C184 163 184 163 184 163 Z M186 166 C184.64 168.73 185.12 170.61 185.44 173.62 C185.54 174.63 185.64 175.63 185.75 176.66 C185.83 177.43 185.91 178.21 186 179 C186.33 179 186.66 179 187 179 C187 174.71 187 170.42 187 166 C186.67 166 186.34 166 186 166 Z M64 186 C65 188 65 188 65 188 Z M62 189 C63 191 63 191 63 191 Z M61 193 C61 276.49 61 359.98 61 446 C61.33 446 61.66 446 62 446 C62 362.51 62 279.02 62 193 C61.67 193 61.34 193 61 193 Z " fill="#68998D" transform="translate(505,6)"/>
<path d="M0 0 C32.82 0.03 32.82 0.03 44.58 5.19 C45.38 5.54 46.18 5.88 47.01 6.24 C48.55 6.92 50.1 7.61 51.63 8.32 C53.72 9.29 53.72 9.29 56.58 10.19 C56.58 10.85 56.58 11.51 56.58 12.19 C57.45 12.42 58.31 12.64 59.2 12.88 C67.43 16.08 73.67 24.06 78.58 31.19 C78.58 31.85 78.58 32.51 78.58 33.19 C79.57 34.12 79.57 34.12 80.58 35.07 C82.58 37.19 82.58 37.19 82.58 41.19 C83.24 41.19 83.9 41.19 84.58 41.19 C86.7 46.82 86.7 46.82 85.58 50.19 C86.24 50.52 86.9 50.85 87.58 51.19 C88.31 53.17 88.98 55.17 89.58 57.19 C89.91 57.19 90.24 57.19 90.58 57.19 C90.63 57.85 90.68 58.52 90.73 59.2 C90.84 60.53 90.84 60.53 90.95 61.88 C91.06 63.18 91.06 63.18 91.17 64.51 C91.46 67.2 91.46 67.2 92.61 69.53 C93.89 73.04 93.8 76.33 93.7 80 C93.7 80.7 93.69 81.39 93.68 82.1 C93.65 83.8 93.62 85.49 93.58 87.19 C94.24 87.19 94.9 87.19 95.58 87.19 C95.25 87.85 94.92 88.51 94.58 89.19 C94.91 89.52 95.24 89.85 95.58 90.19 C95.69 92.64 95.73 95.07 95.74 97.52 C95.74 98.3 95.75 99.08 95.75 99.88 C95.77 102.5 95.78 105.12 95.79 107.75 C95.79 109.62 95.8 111.49 95.82 113.36 C95.84 118.46 95.86 123.56 95.88 128.66 C95.9 133.98 95.93 139.3 95.96 144.63 C96.01 154.71 96.05 164.8 96.1 174.88 C96.15 186.36 96.2 197.84 96.26 209.32 C96.37 232.95 96.48 256.57 96.58 280.19 C96.91 280.19 97.24 280.19 97.58 280.19 C97.62 284.18 97.65 288.16 97.65 292.15 C97.65 292.82 97.65 293.49 97.65 294.19 C97.58 296.28 97.32 298.3 97.02 300.38 C96.33 306.38 95.6 314.3 99.13 319.46 C99.61 320.03 100.09 320.6 100.58 321.19 C100.58 321.85 100.58 322.51 100.58 323.19 C98.03 324.46 96.25 324.31 93.4 324.3 C92.31 324.3 91.23 324.3 90.12 324.3 C88.36 324.3 88.36 324.3 86.57 324.29 C85.38 324.29 84.18 324.29 82.95 324.28 C79.12 324.28 75.29 324.27 71.45 324.25 C68.86 324.25 66.27 324.24 63.68 324.24 C57.31 324.23 50.95 324.21 44.58 324.19 C43.06 320.63 42.36 318.08 42.58 314.19 C41.92 314.19 41.26 314.19 40.58 314.19 C40.52 313.39 40.52 313.39 40.47 312.57 C39.99 306.86 39.15 301.26 38.14 295.63 C37.96 294.56 37.96 294.56 37.77 293.46 C37.44 291.69 37.02 289.94 36.58 288.19 C35.92 287.86 35.26 287.53 34.58 287.19 C34.58 288.51 34.58 289.83 34.58 291.19 C33.27 292.22 31.93 293.22 30.58 294.19 C30.58 295.18 30.58 296.17 30.58 297.19 C27.89 302.01 24.36 305.56 20.38 309.36 C18.4 311.26 18.4 311.26 16.58 314.19 C15.92 313.86 15.26 313.53 14.58 313.19 C14.58 314.18 14.58 315.17 14.58 316.19 C12.76 318.36 10.97 319.6 8.58 321.19 C7.26 321.19 5.94 321.19 4.58 321.19 C4.25 322.18 3.92 323.17 3.58 324.19 C-0.48 326.28 -4.97 327.26 -9.42 328.19 C-10.41 327.86 -11.4 327.53 -12.42 327.19 C-12.75 327.85 -13.08 328.51 -13.42 329.19 C-17.56 331.26 -23.02 330.11 -27.55 329.94 C-28.66 329.91 -29.78 329.89 -30.93 329.86 C-39.2 329.56 -45.05 327.88 -52.42 324.19 C-54.41 323.5 -56.41 322.83 -58.42 322.19 C-58.42 321.53 -58.42 320.87 -58.42 320.19 C-59.04 319.88 -59.66 319.57 -60.3 319.25 C-61.67 318.57 -63.05 317.88 -64.42 317.19 C-64.75 316.2 -65.08 315.21 -65.42 314.19 C-66.41 314.19 -67.4 314.19 -68.42 314.19 C-68.42 313.53 -68.42 312.87 -68.42 312.19 C-69.41 311.86 -70.4 311.53 -71.42 311.19 C-73.42 309.19 -73.42 309.19 -73.8 307.25 C-74.63 304.51 -76.14 303.81 -78.42 302.19 C-78.42 301.53 -78.42 300.87 -78.42 300.19 C-79.41 299.86 -80.4 299.53 -81.42 299.19 C-82.15 297.21 -82.81 295.21 -83.42 293.19 C-84.39 291.26 -85.39 289.34 -86.42 287.44 C-88.84 282.72 -90.3 278.48 -91.1 273.25 C-91.39 271 -91.39 271 -92.42 268.19 C-92.52 265.81 -92.55 263.42 -92.55 261.04 C-92.55 260.34 -92.55 259.64 -92.56 258.93 C-92.56 257.46 -92.55 255.98 -92.55 254.51 C-92.55 252.26 -92.55 250.02 -92.56 247.77 C-92.56 246.34 -92.55 244.91 -92.55 243.48 C-92.55 242.17 -92.55 240.87 -92.55 239.53 C-92.45 236.84 -92.08 234.76 -91.42 232.19 C-91.75 231.53 -92.08 230.87 -92.42 230.19 C-91.76 230.19 -91.1 230.19 -90.42 230.19 C-90.46 229.32 -90.5 228.46 -90.55 227.57 C-90.41 223.97 -89.67 221.55 -88.42 218.19 C-87.89 216.63 -87.37 215.07 -86.86 213.5 C-84.42 206.19 -84.42 206.19 -83.42 205.19 C-83.75 204.53 -84.08 203.87 -84.42 203.19 C-83.43 203.19 -82.44 203.19 -81.42 203.19 C-80.41 200.14 -80.41 200.14 -81.42 197.19 C-80.82 196.82 -80.22 196.45 -79.61 196.07 C-77.23 194.27 -77.23 194.27 -75.98 191.32 C-74.26 187.87 -72.13 185.9 -69.42 183.19 C-69.11 182.37 -68.8 181.54 -68.48 180.69 C-66.65 176.39 -62.92 174.08 -58.98 171.75 C-56.02 169.94 -53.56 167.8 -50.97 165.49 C-48.86 163.72 -47.06 163.07 -44.42 162.19 C-44.42 161.53 -44.42 160.87 -44.42 160.19 C-43.43 159.86 -42.44 159.53 -41.42 159.19 C-41.09 158.53 -40.76 157.87 -40.42 157.19 C-39.09 156.86 -37.75 156.52 -36.42 156.19 C-36.09 155.53 -35.76 154.87 -35.42 154.19 C-33.77 154.19 -32.12 154.19 -30.42 154.19 C-30.15 153.55 -29.88 152.91 -29.61 152.25 C-28.42 150.19 -28.42 150.19 -25.42 149.19 C-24.06 148.22 -22.73 147.23 -21.42 146.19 C-21.09 146.52 -20.76 146.85 -20.42 147.19 C-20.42 146.86 -20.42 146.53 -20.42 146.19 C-18.11 145.86 -15.8 145.53 -13.42 145.19 C-13.42 144.53 -13.42 143.87 -13.42 143.19 C-11.77 143.19 -10.12 143.19 -8.42 143.19 C-8.42 142.53 -8.42 141.87 -8.42 141.19 C-6.44 140.86 -4.46 140.53 -2.42 140.19 C-2.42 139.53 -2.42 138.87 -2.42 138.19 C-1.1 138.19 0.22 138.19 1.58 138.19 C1.91 137.2 2.24 136.21 2.58 135.19 C2.58 135.85 2.58 136.51 2.58 137.19 C3.24 136.53 3.9 135.87 4.58 135.19 C6.5 134.44 6.5 134.44 8.77 133.75 C11.74 132.82 14.56 131.8 17.39 130.5 C20.58 129.19 20.58 129.19 24.58 129.19 C24.58 128.53 24.58 127.87 24.58 127.19 C26.23 127.19 27.88 127.19 29.58 127.19 C30.57 125.21 30.57 125.21 31.58 123.19 C31.91 123.19 32.24 123.19 32.58 123.19 C32.58 113.95 32.58 104.71 32.58 95.19 C32.25 95.19 31.92 95.19 31.58 95.19 C31.6 94.04 31.63 92.89 31.65 91.71 C31.88 76 31.28 63.91 21.2 51.19 C17.73 48.54 14.85 48.04 10.58 47.19 C10.25 46.86 9.92 46.53 9.58 46.19 C2.26 45.45 -3.54 46.19 -10.22 49.23 C-12.91 50.4 -15.51 50.88 -18.42 51.19 C-18.42 51.85 -18.42 52.51 -18.42 53.19 C-19.41 54.18 -19.41 54.18 -20.42 55.19 C-20.75 56.04 -21.08 56.88 -21.42 57.75 C-22.42 60.19 -22.42 60.19 -24.42 61.19 C-25.3 62.99 -25.3 62.99 -25.98 65.19 C-26.23 65.91 -26.48 66.63 -26.74 67.38 C-29.07 76.98 -28.75 87.12 -29.03 96.94 C-29.06 98.12 -29.1 99.29 -29.14 100.5 C-29.17 101.57 -29.2 102.64 -29.23 103.74 C-29.42 106.19 -29.42 106.19 -30.42 107.19 C-32.23 107.32 -32.23 107.32 -34.42 107.32 C-35.14 107.32 -35.86 107.32 -36.61 107.32 C-38.42 107.19 -38.42 107.19 -39.42 106.19 C-41.76 106.17 -44.08 106.2 -46.42 106.25 C-55.99 106.38 -65.5 105.79 -75.05 105.19 C-75.8 105.14 -76.56 105.09 -77.34 105.04 C-81.7 104.77 -86.06 104.48 -90.42 104.19 C-90.42 103.53 -90.42 102.87 -90.42 102.19 C-91.08 101.53 -91.74 100.87 -92.42 100.19 C-91.76 100.19 -91.1 100.19 -90.42 100.19 C-90.43 99.04 -90.44 97.9 -90.46 96.72 C-90.46 95.19 -90.47 93.66 -90.48 92.13 C-90.49 91.38 -90.5 90.62 -90.51 89.85 C-90.53 85.19 -90.15 80.8 -89.42 76.19 C-89.42 75.2 -89.42 74.21 -89.42 73.19 C-88.76 73.19 -88.1 73.19 -87.42 73.19 C-87.42 70.88 -87.42 68.57 -87.42 66.19 C-86.76 66.19 -86.1 66.19 -85.42 66.19 C-85.63 65.67 -85.83 65.16 -86.05 64.63 C-86.58 61.16 -85.5 58.48 -84.42 55.19 C-83.76 55.19 -83.1 55.19 -82.42 55.19 C-83.08 53.87 -83.74 52.55 -84.42 51.19 C-83.43 50.7 -83.43 50.7 -82.42 50.19 C-81.77 48.17 -81.77 48.17 -81.42 46.19 C-80.76 46.19 -80.1 46.19 -79.42 46.19 C-79.36 45.53 -79.3 44.87 -79.23 44.19 C-78.09 39.99 -75.85 36.77 -73.42 33.19 C-72.9 32.43 -72.39 31.66 -71.86 30.88 C-70.42 29.19 -70.42 29.19 -68.3 27.69 C-66.05 25.9 -65.94 24.94 -65.42 22.19 C-64.76 21.2 -64.1 20.21 -63.42 19.19 C-62.66 19.07 -61.89 18.94 -61.11 18.82 C-58.16 18.38 -58.16 18.38 -55.86 15.63 C-55.05 14.82 -54.25 14.02 -53.42 13.19 C-52.1 13.19 -50.78 13.19 -49.42 13.19 C-49.42 12.53 -49.42 11.87 -49.42 11.19 C-47.44 10.86 -45.46 10.53 -43.42 10.19 C-43.42 9.53 -43.42 8.87 -43.42 8.19 C-39.65 6.39 -36.46 5.06 -32.3 4.63 C-28.6 4.4 -28.6 4.4 -26.13 3.2 C-22.76 1.94 -19.76 1.8 -16.17 1.63 C-10.36 1.33 -5.94 0.04 0 0 Z M-25.42 56.19 C-24.42 58.19 -24.42 58.19 -24.42 58.19 Z M-23.42 56.19 C-22.42 58.19 -22.42 58.19 -22.42 58.19 Z M90.58 69.19 C91.58 71.19 91.58 71.19 91.58 71.19 Z M93.58 99.19 C93.58 155.29 93.58 211.39 93.58 269.19 C93.91 269.19 94.24 269.19 94.58 269.19 C94.58 213.09 94.58 156.99 94.58 99.19 C94.25 99.19 93.92 99.19 93.58 99.19 Z M-35.42 105.19 C-35.42 105.52 -35.42 105.85 -35.42 106.19 C-33.77 106.19 -32.12 106.19 -30.42 106.19 C-30.42 105.86 -30.42 105.53 -30.42 105.19 C-32.07 105.19 -33.72 105.19 -35.42 105.19 Z M30.58 162.19 C29.78 162.99 28.97 163.8 28.14 164.63 C25.58 167.19 25.58 167.19 22.58 168.19 C22.25 168.85 21.92 169.51 21.58 170.19 C20.84 170.29 20.09 170.4 19.33 170.5 C15.65 171.42 14.07 173.42 11.58 176.19 C10.92 175.86 10.26 175.53 9.58 175.19 C8.84 176.16 8.09 177.13 7.33 178.13 C5.05 181.1 5.05 181.1 2.75 181.54 C-0.63 182.55 -2.58 185.16 -4.92 187.69 C-10.28 193.49 -10.28 193.49 -14.42 194.19 C-14.69 194.89 -14.96 195.59 -15.23 196.32 C-16.48 199.32 -17.59 200.49 -19.92 202.69 C-22.75 205.39 -24.23 207.41 -25.42 211.19 C-25.92 211.89 -26.41 212.59 -26.92 213.32 C-28.88 217.06 -29.36 220.71 -29.99 224.86 C-30.42 227.19 -30.42 227.19 -31.42 228.19 C-31.67 231.6 -31.61 235.02 -31.61 238.44 C-31.62 239.4 -31.63 240.35 -31.64 241.33 C-31.65 246.11 -31.57 249.83 -29.42 254.19 C-29.26 255.43 -29.09 256.67 -28.92 257.94 C-28.76 259.01 -28.59 260.09 -28.42 261.19 C-27.76 261.52 -27.1 261.85 -26.42 262.19 C-25.44 263.92 -24.46 265.66 -23.5 267.4 C-22.1 269.72 -20.5 271.46 -18.42 273.19 C-17.76 273.19 -17.1 273.19 -16.42 273.19 C-16.09 273.85 -15.76 274.51 -15.42 275.19 C-10.11 278.3 -5.43 278.29 0.58 278.19 C0.58 277.86 0.58 277.53 0.58 277.19 C2.25 276.82 2.25 276.82 3.95 276.44 C7.63 275.58 7.63 275.58 9.02 273.07 C9.2 272.45 9.39 271.83 9.58 271.19 C9.91 271.85 10.24 272.51 10.58 273.19 C14.37 271.93 15.82 270.08 18.58 267.19 C19.66 266.1 20.75 265.01 21.84 263.93 C22.4 263.37 22.96 262.81 23.54 262.23 C26.89 258.88 30.23 255.54 33.58 252.19 C33.77 249.4 33.84 246.71 33.82 243.92 C33.83 242.63 33.83 242.63 33.83 241.32 C33.83 238.49 33.82 235.65 33.81 232.82 C33.81 230.85 33.81 228.88 33.81 226.92 C33.81 222.8 33.8 218.67 33.79 214.55 C33.77 209.26 33.76 203.97 33.77 198.67 C33.77 194.61 33.76 190.55 33.75 186.49 C33.75 184.54 33.75 182.59 33.75 180.64 C33.74 177.91 33.74 175.19 33.73 172.46 C33.73 171.24 33.73 171.24 33.73 170 C33.8 165.97 33.8 165.97 32.58 162.19 C31.92 162.19 31.26 162.19 30.58 162.19 Z M-1.42 181.19 C-0.42 183.19 -0.42 183.19 -0.42 183.19 Z M-17.42 195.19 C-16.42 197.19 -16.42 197.19 -16.42 197.19 Z M-25.42 208.19 C-24.42 210.19 -24.42 210.19 -24.42 210.19 Z M-33.42 244.19 C-32.42 247.19 -32.42 247.19 -32.42 247.19 Z M-32.42 249.19 C-31.42 251.19 -31.42 251.19 -31.42 251.19 Z M93.58 282.19 C93.58 285.82 93.58 289.45 93.58 293.19 C93.91 293.19 94.24 293.19 94.58 293.19 C94.58 289.56 94.58 285.93 94.58 282.19 C94.25 282.19 93.92 282.19 93.58 282.19 Z M94.58 297.19 C95.58 299.19 95.58 299.19 95.58 299.19 Z M-40.42 327.19 C-40.42 327.52 -40.42 327.85 -40.42 328.19 C-38.44 328.19 -36.46 328.19 -34.42 328.19 C-34.42 327.86 -34.42 327.53 -34.42 327.19 C-36.4 327.19 -38.38 327.19 -40.42 327.19 Z " fill="#67988C" transform="translate(998.420166015625,129.809814453125)"/>
<path d="M0 0 C34.02 -0.62 34.02 -0.62 46 5 C47.26 5.56 47.26 5.56 48.55 6.13 C50.03 6.8 51.51 7.47 52.98 8.13 C55.14 9.09 55.14 9.09 58 10 C58 10.66 58 11.32 58 12 C59.65 12.33 61.3 12.66 63 13 C63 13.66 63 14.32 63 15 C64.98 15.5 64.98 15.5 67 16 C67 16.66 67 17.32 67 18 C67.56 18.23 68.11 18.45 68.69 18.69 C71.66 20.38 73.72 22.47 76 25 C76 25.66 76 26.32 76 27 C76.66 27.33 77.32 27.66 78 28 C77.67 28.99 77.34 29.98 77 31 C77.61 31.08 78.21 31.16 78.84 31.24 C81.74 32.26 82.19 33.49 83.56 36.19 C84.19 37.4 84.19 37.4 84.83 38.63 C85.21 39.41 85.6 40.2 86 41 C86.6 42.18 87.2 43.35 87.81 44.56 C88.4 45.77 88.4 45.77 89 47 C89.33 47 89.66 47 90 47 C90 48.65 90 50.3 90 52 C90.66 52 91.32 52 92 52 C97 66.7 97 66.7 97 70 C97.33 70 97.66 70 98 70 C98 75.28 98 80.56 98 86 C94.8 87.07 92.34 87.07 89 87 C88.67 87.99 88.34 88.98 88 90 C85.29 91.35 82.99 91.07 80 91 C80 91.66 80 92.32 80 93 C79.11 93.29 79.11 93.29 78.21 93.59 C70.97 95.95 70.97 95.95 64 99 C62.46 99.07 60.92 99.08 59.38 99.06 C58.56 99.05 57.74 99.04 56.9 99.04 C56.27 99.02 55.65 99.01 55 99 C54.77 97.96 54.77 97.96 54.53 96.9 C49.36 70.05 49.36 70.05 32 50 C32 49.34 32 48.68 32 48 C30.89 47.86 29.77 47.71 28.62 47.56 C25 47 25 47 23 46 C20.59 45.85 18.17 45.78 15.75 45.75 C13.79 45.71 13.79 45.71 11.8 45.67 C7.78 46.02 5.46 47.02 2 49 C0.51 49.5 0.51 49.5 -1 50 C-1.33 49.67 -1.66 49.34 -2 49 C-2.45 49.78 -2.91 50.57 -3.38 51.38 C-5 54 -5 54 -7 56 C-7.29 56.62 -7.58 57.24 -7.88 57.88 C-9 60 -9 60 -11.12 61.94 C-13.51 64.56 -13.16 65.54 -13 69 C-13.35 70.03 -13.7 71.06 -14.06 72.12 C-15.31 77.27 -14.7 81.8 -14 87 C-13.67 87 -13.34 87 -13 87 C-13 88.65 -13 90.3 -13 92 C-12.34 92.33 -11.68 92.66 -11 93 C-11.33 93.66 -11.66 94.32 -12 95 C-11.34 95 -10.68 95 -10 95 C-8.71 96.5 -7.5 98.05 -6.31 99.62 C-3.74 102.94 -1.25 105.84 2 108.5 C2.99 109.32 3.98 110.15 5 111 C5 111.66 5 112.32 5 113 C6.49 113.5 6.49 113.5 8 114 C8.56 114.7 9.11 115.4 9.69 116.12 C12.16 119.2 14.85 121.55 17.85 124.1 C20.07 126.06 22.12 128.12 24.19 130.25 C26.96 133.08 29.59 134.99 33 137 C34.84 138.78 36.61 140.61 38.35 142.48 C40.03 144.24 40.03 144.24 43 145 C43.89 146.37 44.77 147.73 45.64 149.11 C49.12 153.93 53.58 158.59 58.72 161.58 C61 163 61 163 62 166 C64.59 168.81 67.34 171.3 70.31 173.69 C71.2 174.45 72.09 175.21 73 176 C73 176.66 73 177.32 73 178 C73.66 178 74.32 178 75 178 C76.69 179.61 76.69 179.61 78.56 181.75 C79.18 182.45 79.8 183.14 80.44 183.86 C82 186 82 186 82.53 188.11 C82.9 190.42 82.9 190.42 86 192.44 C89.27 195.23 89.47 195.96 90 200 C90.98 201.02 91.98 202.02 93 203 C93 203.99 93 204.98 93 206 C93.66 206 94.32 206 95 206 C95.73 207.98 96.39 209.98 97 212 C96.67 212.66 96.34 213.32 96 214 C96.66 214.33 97.32 214.66 98 215 C100.02 218.2 100.49 221.29 101 225 C101.56 229.48 101.56 229.48 102.52 233.89 C103.08 236.37 103.13 238.63 103.13 241.17 C103.13 242.14 103.14 243.12 103.14 244.12 C103.13 245.13 103.13 246.15 103.12 247.19 C103.13 248.21 103.13 249.23 103.14 250.29 C103.13 251.74 103.13 251.74 103.13 253.23 C103.13 254.12 103.13 255.01 103.13 255.93 C103 258 103 258 102 259 C101.72 262.36 101.55 265.72 101.38 269.09 C101.25 270.05 101.13 271.01 101 272 C100.34 272.33 99.68 272.66 99 273 C99.33 273.99 99.66 274.98 100 276 C99.01 276.66 98.02 277.32 97 278 C96.27 280.58 96.27 280.58 95.94 283.5 C95.21 288.79 95.21 288.79 93 291 C92.88 291.66 92.75 292.32 92.62 293 C92.42 293.66 92.21 294.32 92 295 C90.67 295.67 89.33 296.33 88 297 C86.4 299.35 85.15 301.66 84 304.25 C83 306 83 306 80 307 C79.67 307.66 79.34 308.32 79 309 C78.34 309 77.68 309 77 309 C75.78 310.51 74.57 312.02 73.36 313.54 C71.51 315.52 69.53 316.13 67 317 C66.23 317.84 66.23 317.84 65.44 318.69 C64.96 319.12 64.49 319.55 64 320 C61.81 319.69 61.81 319.69 60 319 C60 319.66 60 320.32 60 321 C52.11 325.6 42.98 327.06 34 328 C32.33 328.31 30.66 328.64 29 329 C29 328.67 29 328.34 29 328 C26.69 328 24.38 328 22 328 C22 328.33 22 328.66 22 329 C12.76 329 3.52 329 -6 329 C-6 328.34 -6 327.68 -6 327 C-9.63 326.67 -13.26 326.34 -17 326 C-17 325.34 -17 324.68 -17 324 C-18.42 324.03 -18.42 324.03 -19.88 324.06 C-23 324 -23 324 -25 323 C-25 322.34 -25 321.68 -25 321 C-26.18 321.06 -26.18 321.06 -27.38 321.12 C-30 321 -30 321 -32 319 C-34.32 317.96 -36.65 316.96 -39 316 C-39 315.34 -39 314.68 -39 314 C-39.74 313.94 -40.49 313.88 -41.25 313.81 C-44.89 312.74 -45.79 311.04 -48 308 C-50.23 305.72 -52.48 303.49 -54.81 301.31 C-56 300 -56 300 -56 298 C-56.66 298 -57.32 298 -58 298 C-59.06 296.37 -60.05 294.7 -61 293 C-61.99 291.51 -61.99 291.51 -63 290 C-63 289.01 -63 288.02 -63 287 C-63.66 287 -64.32 287 -65 287 C-67.18 282.73 -69.31 278.5 -71 274 C-71.24 273.42 -71.47 272.83 -71.71 272.23 C-73.45 267.84 -74.65 263.52 -75.57 258.88 C-75.94 256.92 -75.94 256.92 -77 255 C-77.39 253.19 -77.74 251.38 -78.06 249.56 C-78.33 248.11 -78.33 248.11 -78.6 246.63 C-79.11 243.29 -79.08 241.23 -78 238 C-75.45 236.96 -75.45 236.96 -72 236 C-70.69 235.61 -69.39 235.21 -68.08 234.82 C-66.66 234.4 -65.24 233.98 -63.81 233.56 C-63.07 233.34 -62.32 233.12 -61.56 232.9 C-56.36 231.38 -51.15 229.94 -45.91 228.58 C-44.01 228.17 -44.01 228.17 -43 227 C-40.67 226.96 -38.33 226.96 -36 227 C-36 226.34 -36 225.68 -36 225 C-33.03 224.67 -30.06 224.34 -27 224 C-26.25 227.65 -25.6 231.32 -25 235 C-24.67 235 -24.34 235 -24 235 C-23.86 236.22 -23.71 237.43 -23.56 238.69 C-22.9 244.58 -22.9 244.58 -20.94 250.12 C-20 252 -20 252 -20 255 C-19.01 255.99 -19.01 255.99 -18 257 C-16.85 259.08 -15.95 261.14 -15.12 263.38 C-13.77 266.53 -11.91 269.16 -10 272 C-9.5 273.49 -9.5 273.49 -9 275 C-8.34 275 -7.68 275 -7 275 C-7 275.66 -7 276.32 -7 277 C-5.82 277.37 -5.82 277.37 -4.62 277.75 C-1 279 -1 279 0.99 280.02 C6.74 282.83 11.83 283.37 18.12 283.38 C19.25 283.38 19.25 283.38 20.4 283.38 C25.54 283.28 30.06 282.4 35 281 C35 280.34 35 279.68 35 279 C39.38 276 39.38 276 42 276 C42 274.35 42 272.7 42 271 C42.96 270.6 42.96 270.6 43.94 270.19 C46.33 269.11 46.33 269.11 47 266 C46.34 265.67 45.68 265.34 45 265 C45.66 264.67 46.32 264.34 47 264 C47.91 261.89 47.91 261.89 48.62 259.44 C48.89 258.61 49.15 257.78 49.41 256.93 C49.61 256.3 49.8 255.66 50 255 C49.34 255 48.68 255 48 255 C48.03 254.03 48.07 253.07 48.11 252.07 C48.29 243.02 48.17 234.76 43 227 C43 226.01 43 225.02 43 224 C42.01 223.67 41.02 223.34 40 223 C40 222.01 40 221.02 40 220 C39.34 220 38.68 220 38 220 C38 219.34 38 218.68 38 218 C37.34 217.67 36.68 217.34 36 217 C34.98 216.02 33.98 215.02 33 214 C31.84 212.84 30.67 211.71 29.44 210.62 C27.8 208.77 27.42 207.41 27 205 C26.22 204.86 25.43 204.71 24.62 204.56 C22 204 22 204 20 203 C20 202.34 20 201.68 20 201 C19.42 200.73 18.83 200.46 18.23 200.19 C15.97 198.99 14.19 197.66 12.25 196 C11.64 195.48 11.02 194.97 10.39 194.44 C9 193 9 193 9 191 C8 190.74 8 190.74 6.98 190.46 C2.62 188.32 -0.28 185.03 -3.62 181.56 C-4.63 180.54 -4.63 180.54 -5.65 179.5 C-6.89 178.23 -8.13 176.96 -9.36 175.69 C-10.17 174.85 -10.17 174.85 -11 174 C-11.75 173.15 -11.75 173.15 -12.52 172.28 C-14.05 170.67 -14.05 170.67 -17 171 C-17 170.34 -17 169.68 -17 169 C-17.8 168.66 -17.8 168.66 -18.62 168.31 C-23.85 165.42 -27.36 161.64 -31 157 C-33.86 155.03 -33.86 155.03 -36.45 153.67 C-39.26 151.83 -40.85 149.99 -42.88 147.31 C-46.01 143.24 -49.27 139.38 -52.75 135.59 C-54 134 -54 134 -54 132 C-54.66 131.67 -55.32 131.34 -56 131 C-56 130.01 -56 129.02 -56 128 C-57.49 127.5 -57.49 127.5 -59 127 C-60.06 125.4 -60.06 125.4 -61 123.38 C-61.34 122.65 -61.67 121.93 -62.02 121.18 C-62.34 120.46 -62.67 119.74 -63 119 C-63.56 117.82 -64.11 116.65 -64.69 115.44 C-66.03 111.93 -66.48 108.71 -67 105 C-67.66 104.67 -68.32 104.34 -69 104 C-69.38 101.64 -69.38 101.64 -69.56 98.69 C-69.77 94.89 -69.77 94.89 -70.51 91.18 C-71.11 88.54 -71.13 86.1 -71.13 83.39 C-71.13 81.8 -71.13 81.8 -71.14 80.17 C-71.13 79.06 -71.13 77.95 -71.12 76.81 C-71.13 75.69 -71.13 74.58 -71.14 73.42 C-71.14 72.36 -71.13 71.3 -71.13 70.21 C-71.13 69.23 -71.13 68.26 -71.13 67.25 C-71 65 -71 65 -70 64 C-69.77 62.65 -69.59 61.3 -69.44 59.94 C-69.22 57.99 -69.22 57.99 -69 56 C-68.34 56 -67.68 56 -67 56 C-67.22 55.49 -67.43 54.98 -67.65 54.45 C-68.16 50.88 -66.84 48.03 -65.56 44.75 C-65.32 44.1 -65.08 43.45 -64.83 42.78 C-64.23 41.18 -63.61 39.59 -63 38 C-62.34 38 -61.68 38 -61 38 C-61.25 36.73 -61.25 36.73 -61.5 35.44 C-60.83 30.86 -59.01 29.86 -55.49 27.07 C-51.57 23.8 -48.18 19.99 -44.71 16.26 C-41.7 13.75 -39.86 13.26 -36 13 C-36 12.34 -36 11.68 -36 11 C-23.51 4.11 -23.51 4.11 -17 5 C-17 4.34 -17 3.68 -17 3 C-14.54 2.64 -12.08 2.29 -9.62 1.94 C-8.58 1.78 -8.58 1.78 -7.51 1.62 C-2.23 0.89 -2.23 0.89 0 2 C0 1.34 0 0.68 0 0 Z M-60 33 C-59.67 33.99 -59.34 34.98 -59 36 C-58.67 35.01 -58.34 34.02 -58 33 C-58.66 33 -59.32 33 -60 33 Z M16 43 C16 43.33 16 43.66 16 44 C17.98 44 19.96 44 22 44 C22 43.67 22 43.34 22 43 C20.02 43 18.04 43 16 43 Z M-15 64 C-14 66 -14 66 -14 66 Z M94 69 C95 71 95 71 95 71 Z M-18 73 C-17 75 -17 75 -17 75 Z M67 94 C66.67 94.66 66.34 95.32 66 96 C66.99 95.67 67.98 95.34 69 95 C68.34 94.67 67.68 94.34 67 94 Z M98 220 C99 222 99 222 99 222 Z M99 225 C99 227.64 99 230.28 99 233 C99.33 233 99.66 233 100 233 C100 230.36 100 227.72 100 225 C99.67 225 99.34 225 99 225 Z M-29 229 C-28 231 -28 231 -28 231 Z M100 235 C101 237 101 237 101 237 Z M-25 245 C-24 247 -24 247 -24 247 Z M49 247 C49 249.31 49 251.62 49 254 C49.33 254 49.66 254 50 254 C50 251.69 50 249.38 50 247 C49.67 247 49.34 247 49 247 Z M98 263 C98.33 265.31 98.66 267.62 99 270 C99.33 270 99.66 270 100 270 C100 267.69 100 265.38 100 263 C99.34 263 98.68 263 98 263 Z M-15 267 C-14 269 -14 269 -14 269 Z M97 267 C97 268.65 97 270.3 97 272 C97.33 272 97.66 272 98 272 C98 270.35 98 268.7 98 267 C97.67 267 97.34 267 97 267 Z M43 271 C43.33 271.66 43.66 272.32 44 273 C44.33 272.34 44.66 271.68 45 271 C44.34 271 43.68 271 43 271 Z M97 273 C98 275 98 275 98 275 Z M-5 327 C-5 327.33 -5 327.66 -5 328 C-1.7 328 1.6 328 5 328 C5 327.67 5 327.34 5 327 C1.7 327 -1.6 327 -5 327 Z " fill="#67978C" transform="translate(359,130)"/>
<path d="M0 0 C1.67 -0 1.67 -0 3.37 -0 C4.54 -0 5.71 0 6.91 0.01 C8.08 0 9.24 0 10.44 -0 C12.11 -0 12.11 -0 13.81 0 C15.35 0 15.35 0 16.92 0 C19.54 0.13 19.54 0.13 22.54 1.13 C24.62 1.31 26.7 1.45 28.79 1.57 C33.68 1.91 37.92 2.52 42.54 4.13 C42.54 4.79 42.54 5.45 42.54 6.13 C43.2 6.13 43.86 6.13 44.54 6.13 C44.54 19.66 44.54 33.19 44.54 47.13 C24.54 47.13 24.54 47.13 20.54 46.13 C20.54 46.46 20.54 46.79 20.54 47.13 C19.85 47.24 19.16 47.35 18.46 47.46 C17.56 47.62 16.65 47.78 15.73 47.95 C14.83 48.1 13.94 48.25 13.02 48.4 C10.32 49.2 9.39 50.1 7.54 52.13 C6.88 52.13 6.22 52.13 5.54 52.13 C4.88 53.45 4.22 54.77 3.54 56.13 C2.88 56.13 2.22 56.13 1.54 56.13 C1.39 56.9 1.25 57.66 1.1 58.45 C0.54 61.13 0.54 61.13 -0.46 64.13 C-0.69 66.53 -0.87 68.92 -1.02 71.32 C-1.15 73.23 -1.15 73.23 -1.28 75.18 C-1.34 76.15 -1.4 77.13 -1.46 78.13 C-1.79 78.13 -2.12 78.13 -2.46 78.13 C-3.77 85.08 -3.57 92.02 -3.52 99.07 C-3.52 100.33 -3.51 101.58 -3.51 102.88 C-3.5 105.96 -3.48 109.05 -3.46 112.13 C-2.47 111.8 -1.48 111.47 -0.46 111.13 C-0.46 111.79 -0.46 112.45 -0.46 113.13 C14.06 113.13 28.58 113.13 43.54 113.13 C44.32 116.24 44.66 118.26 44.65 121.35 C44.65 122.18 44.65 123.01 44.65 123.87 C44.65 124.74 44.64 125.6 44.64 126.49 C44.64 127.29 44.63 128.1 44.63 128.92 C44.63 131.91 44.61 134.9 44.6 137.88 C44.58 144.57 44.56 151.25 44.54 158.13 C28.7 158.46 12.86 158.79 -3.46 159.13 C-3.48 192.47 -3.5 225.8 -3.51 259.14 C-3.51 263.07 -3.51 267.01 -3.52 270.95 C-3.52 271.73 -3.52 272.52 -3.52 273.32 C-3.52 286.01 -3.53 298.69 -3.54 311.38 C-3.55 324.4 -3.55 337.42 -3.56 350.44 C-3.56 358.47 -3.56 366.5 -3.57 374.53 C-3.57 380.69 -3.58 386.85 -3.57 393.02 C-3.57 395.54 -3.58 398.07 -3.58 400.59 C-3.59 404.04 -3.58 407.49 -3.58 410.95 C-3.58 411.94 -3.59 412.93 -3.59 413.96 C-3.59 414.89 -3.59 415.83 -3.58 416.79 C-3.58 417.59 -3.58 418.39 -3.59 419.2 C-3.4 423.53 -2.89 427.83 -2.46 432.13 C-22.59 432.13 -42.72 432.13 -63.46 432.13 C-63.79 341.05 -64.12 249.97 -64.46 156.13 C-76.67 156.46 -88.88 156.79 -101.46 157.13 C-103.49 154.09 -103.71 153.53 -103.69 150.12 C-103.69 149.32 -103.69 148.52 -103.69 147.69 C-103.68 146.83 -103.67 145.98 -103.66 145.09 C-103.65 144.21 -103.65 143.32 -103.65 142.41 C-103.64 139.59 -103.61 136.77 -103.59 133.95 C-103.58 132.03 -103.57 130.12 -103.56 128.21 C-103.54 123.51 -103.5 118.82 -103.46 114.13 C-100.29 112.55 -96.87 113.01 -93.39 113.04 C-92.59 113.04 -91.8 113.04 -90.98 113.04 C-88.43 113.05 -85.88 113.06 -83.34 113.07 C-81.61 113.08 -79.89 113.08 -78.16 113.08 C-73.93 113.09 -69.69 113.11 -65.46 113.13 C-65.46 101.91 -65.46 90.69 -65.46 79.13 C-65.13 79.13 -64.8 79.13 -64.46 79.13 C-64.4 78.23 -64.34 77.32 -64.28 76.39 C-63.51 65.21 -63.51 65.21 -62.9 59.95 C-62.4 56.28 -62.4 56.28 -62.46 53.13 C-62.46 52.47 -62.46 51.81 -62.46 51.13 C-61.8 51.13 -61.14 51.13 -60.46 51.13 C-60.48 50.25 -60.5 49.36 -60.52 48.45 C-60.47 45.51 -60.13 42.98 -59.46 40.13 C-58.8 40.13 -58.14 40.13 -57.46 40.13 C-57.52 39.29 -57.58 38.44 -57.65 37.57 C-57.38 32.68 -55.95 28.63 -52.46 25.13 C-50.81 23.05 -49.41 21.04 -48.15 18.7 C-45.99 15.42 -43.55 13.55 -40.46 11.13 C-40.13 10.8 -39.8 10.47 -39.46 10.13 C-38.14 10.13 -36.82 10.13 -35.46 10.13 C-35.46 9.47 -35.46 8.81 -35.46 8.13 C-32.49 7.64 -32.49 7.64 -29.46 7.13 C-29.46 6.47 -29.46 5.81 -29.46 5.13 C-28.85 5 -28.23 4.87 -27.6 4.73 C-26.79 4.55 -25.98 4.38 -25.15 4.2 C-24.35 4.02 -23.55 3.85 -22.72 3.67 C-20.32 3.13 -20.32 3.13 -17.46 2.13 C-14.6 1.83 -11.73 1.63 -8.86 1.41 C-5.55 1.03 -3.69 0 0 0 Z " fill="#67988C" transform="translate(1231.4609375,21.8671875)"/>
<path d="M0 0 C1.13 -0.04 2.26 -0.07 3.42 -0.11 C6.57 0.28 8.94 0.73 11.56 2.58 C14.66 6.86 13.52 13.19 13.4 18.27 C13.39 19.65 13.38 21.03 13.37 22.42 C13.35 26.06 13.29 29.69 13.22 33.33 C13.16 37.04 13.14 40.76 13.11 44.47 C13.04 51.75 12.94 59.03 12.81 66.31 C9.44 66.94 9.44 66.94 5.81 67.31 C5.15 66.65 4.49 65.99 3.81 65.31 C1.84 65.06 -0.13 64.81 -2.12 64.66 C-4.19 64.31 -4.19 64.31 -6.01 63.31 C-10.04 61.46 -14.45 61.94 -18.81 61.94 C-19.76 61.91 -20.71 61.89 -21.68 61.86 C-28.68 61.83 -33.88 63.38 -40.19 66.31 C-42.84 67.4 -45.47 68.41 -48.19 69.31 C-48.19 69.97 -48.19 70.63 -48.19 71.31 C-50.17 70.98 -52.15 70.65 -54.19 70.31 C-54.52 71.96 -54.85 73.61 -55.19 75.31 C-55.85 75.31 -56.51 75.31 -57.19 75.31 C-57.41 76.34 -57.64 77.38 -57.88 78.44 C-59.04 82.57 -61.34 85.11 -64.19 88.31 C-67.8 92.93 -67.6 97.03 -67.54 102.64 C-67.54 103.58 -67.55 104.52 -67.55 105.5 C-67.55 108.66 -67.53 111.82 -67.51 114.98 C-67.51 117.24 -67.51 119.51 -67.51 121.77 C-67.51 127.93 -67.48 134.08 -67.46 140.23 C-67.44 146.66 -67.43 153.09 -67.43 159.52 C-67.41 170.31 -67.39 181.11 -67.36 191.9 C-67.33 203.02 -67.3 214.13 -67.28 225.25 C-67.27 226.27 -67.27 226.27 -67.27 227.32 C-67.25 238.73 -67.23 250.14 -67.22 261.54 C-67.2 269.21 -67.19 276.88 -67.16 284.55 C-67.15 289.3 -67.14 294.06 -67.13 298.82 C-67.12 301.03 -67.12 303.25 -67.11 305.46 C-67.1 308.47 -67.09 311.48 -67.09 314.49 C-67.08 315.38 -67.08 316.27 -67.07 317.19 C-67.07 323.2 -67.07 323.2 -68.19 324.31 C-70.02 324.42 -71.85 324.45 -73.69 324.46 C-75.45 324.47 -75.45 324.47 -77.24 324.48 C-79.16 324.48 -79.16 324.48 -81.12 324.48 C-82.42 324.48 -83.73 324.49 -85.07 324.49 C-87.83 324.5 -90.6 324.5 -93.36 324.5 C-96.91 324.5 -100.45 324.51 -104 324.53 C-107.37 324.54 -110.75 324.54 -114.12 324.54 C-115.4 324.55 -116.68 324.56 -117.99 324.56 C-119.76 324.56 -119.76 324.56 -121.56 324.56 C-122.6 324.56 -123.64 324.56 -124.71 324.56 C-127.19 324.31 -127.19 324.31 -129.19 322.31 C-129.44 320.04 -129.44 320.04 -129.43 317.13 C-129.44 316.03 -129.44 314.92 -129.45 313.78 C-129.44 312.56 -129.43 311.34 -129.43 310.08 C-129.43 308.78 -129.43 307.49 -129.43 306.16 C-129.44 302.56 -129.43 298.96 -129.42 295.36 C-129.41 291.49 -129.41 287.61 -129.42 283.74 C-129.42 277.02 -129.41 270.3 -129.4 263.58 C-129.38 253.86 -129.38 244.15 -129.37 234.43 C-129.37 218.67 -129.36 202.91 -129.34 187.15 C-129.32 171.84 -129.31 156.53 -129.3 141.21 C-129.3 140.27 -129.3 139.33 -129.3 138.35 C-129.29 133.62 -129.29 128.89 -129.29 124.16 C-129.27 84.88 -129.23 45.59 -129.19 6.31 C-126.59 5.01 -124.69 5.18 -121.78 5.17 C-120.08 5.16 -120.08 5.16 -118.35 5.15 C-116.51 5.15 -116.51 5.15 -114.63 5.14 C-112.75 5.14 -112.75 5.14 -110.83 5.13 C-108.17 5.13 -105.51 5.13 -102.85 5.13 C-99.44 5.13 -96.03 5.11 -92.63 5.1 C-89.38 5.08 -86.13 5.08 -82.88 5.08 C-81.04 5.07 -81.04 5.07 -79.17 5.06 C-77.46 5.06 -77.46 5.06 -75.73 5.07 C-74.73 5.07 -73.73 5.07 -72.7 5.07 C-70.19 5.31 -70.19 5.31 -67.19 7.31 C-66.92 10.08 -66.84 12.62 -66.89 15.38 C-66.9 16.18 -66.9 16.98 -66.91 17.8 C-66.92 20.34 -66.96 22.89 -67 25.44 C-67.02 27.16 -67.03 28.89 -67.04 30.61 C-67.07 34.85 -67.13 39.08 -67.19 43.31 C-66.2 43.31 -65.21 43.31 -64.19 43.31 C-64.15 42.61 -64.11 41.91 -64.06 41.19 C-62.98 37.64 -61.31 36.22 -58.56 33.84 C-57.04 32.41 -57.04 32.41 -56.78 30.42 C-56.08 27.94 -55.17 26.92 -53.35 25.11 C-52.78 24.54 -52.21 23.98 -51.62 23.39 C-51.03 22.81 -50.43 22.22 -49.81 21.62 C-49.22 21.03 -48.63 20.44 -48.02 19.83 C-44.44 16.29 -42.03 14.93 -37.19 13.31 C-37.19 12.65 -37.19 11.99 -37.19 11.31 C-34.22 10.82 -34.22 10.82 -31.19 10.31 C-31.19 9.65 -31.19 8.99 -31.19 8.31 C-28.22 7.82 -28.22 7.82 -25.19 7.31 C-25.19 6.65 -25.19 5.99 -25.19 5.31 C-23.87 5.31 -22.55 5.31 -21.19 5.31 C-21.19 4.65 -21.19 3.99 -21.19 3.31 C-20.2 3.64 -19.21 3.97 -18.19 4.31 C-17.61 4.02 -17.03 3.74 -16.44 3.44 C-13.44 1.94 -10.49 1.75 -7.19 1.31 C-5.34 -0.54 -2.48 0.05 0 0 Z M-15.19 59.31 C-15.19 59.64 -15.19 59.97 -15.19 60.31 C-13.21 60.31 -11.23 60.31 -9.19 60.31 C-9.19 59.98 -9.19 59.65 -9.19 59.31 C-11.17 59.31 -13.15 59.31 -15.19 59.31 Z " fill="#67988C" transform="translate(880.1875,129.6875)"/>
<path d="M0 0 C0.33 0 0.66 0 1 0 C1.33 103.29 1.66 206.58 2 313 C20.48 313 38.96 313 58 313 C58 237.43 58 161.86 58 84 C58.99 84 59.98 84 61 84 C61.02 113.28 61.04 142.57 61.05 171.85 C61.05 175.3 61.05 178.76 61.05 182.21 C61.06 182.9 61.06 183.59 61.06 184.3 C61.06 195.44 61.07 206.59 61.08 217.74 C61.09 229.17 61.09 240.6 61.09 252.03 C61.1 258.45 61.1 264.88 61.11 271.3 C61.11 277.34 61.11 283.38 61.11 289.41 C61.11 291.64 61.12 293.86 61.12 296.08 C61.12 299.11 61.12 302.13 61.12 305.15 C61.12 306.04 61.13 306.93 61.13 307.85 C61.11 313.89 61.11 313.89 60 315 C58.17 315.11 56.34 315.15 54.5 315.16 C53.33 315.17 52.15 315.18 50.94 315.19 C49.66 315.19 48.38 315.2 47.07 315.2 C45.76 315.21 44.46 315.21 43.12 315.22 C40.35 315.23 37.59 315.24 34.83 315.24 C31.28 315.25 27.74 315.27 24.19 315.3 C20.82 315.32 17.44 315.32 14.07 315.33 C12.79 315.34 11.51 315.35 10.2 315.37 C9.02 315.36 7.84 315.36 6.63 315.36 C5.59 315.36 4.55 315.36 3.47 315.37 C2.66 315.25 1.84 315.12 1 315 C-1.23 311.66 -1.25 310.65 -1.23 306.76 C-1.23 305.67 -1.23 304.57 -1.23 303.45 C-1.22 302.24 -1.21 301.04 -1.2 299.79 C-1.2 298.52 -1.2 297.24 -1.2 295.93 C-1.19 292.38 -1.17 288.82 -1.15 285.27 C-1.13 281.45 -1.12 277.62 -1.11 273.8 C-1.09 267.16 -1.06 260.53 -1.03 253.9 C-0.98 244.31 -0.94 234.73 -0.91 225.14 C-0.86 209.58 -0.79 194.03 -0.72 178.47 C-0.66 163.36 -0.59 148.25 -0.54 133.14 C-0.53 132.2 -0.53 131.27 -0.53 130.31 C-0.51 125.64 -0.49 120.97 -0.47 116.3 C-0.33 77.53 -0.17 38.77 0 0 Z " fill="#95CCBE" transform="translate(752,139)"/>
<path d="M0 0 C0.33 0 0.66 0 1 0 C1.33 83.82 1.66 167.64 2 254 C31.21 254.5 31.21 254.5 61 255 C61.33 254.34 61.66 253.68 62 253 C62 253.99 62 254.98 62 256 C53.93 256.02 45.87 256.04 37.8 256.05 C34.06 256.06 30.31 256.06 26.56 256.08 C22.95 256.09 19.34 256.09 15.73 256.09 C14.35 256.1 12.97 256.1 11.59 256.11 C9.66 256.11 7.73 256.11 5.8 256.11 C4.71 256.12 3.61 256.12 2.47 256.12 C0 256 0 256 -1 255 C-1.1 251.82 -1.13 248.65 -1.13 245.47 C-1.13 243.95 -1.13 243.95 -1.13 242.4 C-1.14 238.97 -1.13 235.55 -1.13 232.12 C-1.13 229.68 -1.13 227.24 -1.13 224.79 C-1.14 218.83 -1.14 212.86 -1.14 206.89 C-1.13 202.04 -1.13 197.2 -1.13 192.35 C-1.13 191.66 -1.13 190.97 -1.13 190.26 C-1.13 188.86 -1.13 187.46 -1.14 186.06 C-1.14 172.91 -1.13 159.77 -1.13 146.62 C-1.12 135.34 -1.13 124.06 -1.13 112.78 C-1.14 99.69 -1.14 86.6 -1.13 73.51 C-1.13 72.12 -1.13 70.72 -1.13 69.32 C-1.13 68.64 -1.13 67.95 -1.13 67.24 C-1.13 62.4 -1.13 57.56 -1.14 52.72 C-1.14 46.2 -1.14 39.68 -1.13 33.15 C-1.13 30.76 -1.13 28.36 -1.13 25.97 C-1.14 22.7 -1.13 19.43 -1.13 16.17 C-1.13 15.22 -1.13 14.27 -1.13 13.29 C-1.12 8.74 -0.93 4.47 0 0 Z " fill="#84BAAC" transform="translate(633,198)"/>
<path d="M0 0 C0.33 0 0.66 0 1 0 C1 146.52 1 293.04 1 444 C0.67 444 0.34 444 0 444 C0 297.48 0 150.96 0 0 Z " fill="#75A69A" transform="translate(504,7)"/>
<path d="M0 0 C0.33 0 0.66 0 1 0 C1 88.77 1 177.54 1 269 C0.67 269 0.34 269 0 269 C0 180.23 0 91.46 0 0 Z " fill="#67988C" transform="translate(1166,182)"/>
<path d="M0 0 C0.33 0 0.66 0 1 0 C1 75.57 1 151.14 1 229 C0.67 229 0.34 229 0 229 C0 153.43 0 77.86 0 0 Z " fill="#000100" transform="translate(813,223)"/>
<path d="M0 0 C7.17 -0.03 14.34 -0.04 21.51 -0.05 C23.95 -0.06 26.39 -0.07 28.83 -0.08 C32.34 -0.09 35.85 -0.09 39.36 -0.1 C40.45 -0.1 41.53 -0.11 42.66 -0.11 C43.68 -0.11 44.7 -0.11 45.75 -0.11 C46.65 -0.12 47.54 -0.12 48.46 -0.12 C51.06 0 53.46 0.42 56 1 C54 3 54 3 51.67 3.24 C50.7 3.24 49.73 3.23 48.72 3.23 C47.62 3.23 46.52 3.23 45.39 3.23 C44.2 3.22 43 3.21 41.77 3.2 C40.56 3.19 39.34 3.19 38.08 3.19 C34.18 3.18 30.28 3.15 26.38 3.12 C23.73 3.11 21.09 3.11 18.45 3.1 C11.97 3.08 5.48 3.04 -1 3 C-0.67 2.01 -0.34 1.02 0 0 Z " fill="#96CDBF" transform="translate(753,135)"/>
<path d="M0 0 C11.88 0 23.76 0 36 0 C36 0.66 36 1.32 36 2 C36.66 2.33 37.32 2.66 38 3 C25.46 3 12.92 3 0 3 C0 2.01 0 1.02 0 0 Z " fill="#92C8BA" transform="translate(1231,135)"/>
<path d="M0 0 C0.33 0 0.66 0 1 0 C1 28.05 1 56.1 1 85 C0.01 85 -0.98 85 -2 85 C-1.67 84.01 -1.34 83.02 -1 82 C-0.88 79.37 -0.81 76.76 -0.79 74.13 C-0.78 73.33 -0.77 72.53 -0.76 71.71 C-0.73 69.06 -0.71 66.42 -0.68 63.77 C-0.66 61.94 -0.64 60.1 -0.62 58.27 C-0.57 53.44 -0.52 48.61 -0.47 43.78 C-0.42 38.86 -0.36 33.93 -0.31 29 C-0.2 19.33 -0.1 9.67 0 0 Z " fill="#84B6A9" transform="translate(1032,299)"/>
<path d="M0 0 C1.32 0 2.64 0 4 0 C4 0.66 4 1.32 4 2 C3.34 2 2.68 2 2 2 C2 15.2 2 28.4 2 42 C0 40 0 40 -0.23 36.1 C-0.23 34.42 -0.22 32.74 -0.2 31.05 C-0.19 30.17 -0.19 29.28 -0.19 28.37 C-0.18 25.54 -0.15 22.71 -0.12 19.88 C-0.11 17.96 -0.11 16.04 -0.1 14.12 C-0.08 9.41 -0.04 4.71 0 0 Z " fill="#82B7AA" transform="translate(1128,136)"/>
<path d="M0 0 C0.66 0 1.32 0 2 0 C2 17.82 2 35.64 2 54 C1.67 54 1.34 54 1 54 C0.67 44.43 0.34 34.86 0 25 C-0.33 25 -0.66 25 -1 25 C-1.18 8.29 -1.18 8.29 0 0 Z " fill="#88BBAE" transform="translate(1031,200)"/>
<path d="M0 0 C0.33 0 0.66 0 1 0 C1 27.39 1 54.78 1 83 C0.67 83 0.34 83 0 83 C0 55.61 0 28.22 0 0 Z " fill="#82B4A7" transform="translate(1030,296)"/>
<path d="M0 0 C11.05 -0.13 21.98 0.24 33 1 C32.67 1.66 32.34 2.32 32 3 C21.11 3 10.22 3 -1 3 C-0.67 2.01 -0.34 1.02 0 0 Z " fill="#97CFC1" transform="translate(1134,135)"/>
<path d="M0 0 C0.33 0 0.66 0 1 0 C1.03 1.48 1.05 2.96 1.06 4.44 C1.07 5.26 1.09 6.08 1.1 6.93 C1 9 1 9 0 10 C-1.84 10.09 -3.69 10.12 -5.53 10.11 C-6.71 10.11 -7.89 10.11 -9.11 10.11 C-10.39 10.11 -11.68 10.1 -13 10.1 C-14.31 10.1 -15.62 10.09 -16.97 10.09 C-20.45 10.09 -23.94 10.08 -27.42 10.07 C-30.97 10.06 -34.52 10.05 -38.08 10.05 C-45.05 10.04 -52.03 10.02 -59 10 C-59.33 9.34 -59.66 8.68 -60 8 C-40.86 8 -21.72 8 -2 8 C-1.67 6.68 -1.34 5.36 -1 4 C-0.67 2.67 -0.33 1.33 0 0 Z " fill="#9AD3C5" transform="translate(66,444)"/>
<path d="M0 0 C4.01 1.34 6.31 2.99 9.19 6.06 C11.8 8.92 11.8 8.92 15 11 C15.72 12.64 16.39 14.31 17 16 C10.44 12.97 3.82 8.91 0.69 2.19 C0.46 1.47 0.23 0.74 0 0 Z " fill="#2E645E" transform="translate(349,230)"/>
<path d="M0 0 C2.06 0.44 2.06 0.44 4 1 C2.99 1.52 2.99 1.52 1.96 2.05 C-1.97 4.64 -5.04 7.83 -8.31 11.19 C-8.96 11.84 -9.6 12.5 -10.27 13.17 C-11.85 14.78 -13.43 16.39 -15 18 C-15.62 16.15 -15.62 16.15 -16 14 C-14.09 11.53 -14.09 11.53 -11.38 8.94 C-10.5 8.08 -9.62 7.22 -8.71 6.34 C-6.24 4.21 -3.84 2.6 -1 1 C-0.67 0.67 -0.34 0.34 0 0 Z " fill="#81B0A4" transform="translate(318,145)"/>
<path d="M0 0 C19.14 0 38.28 0 58 0 C58 0.33 58 0.66 58 1 C38.86 1 19.72 1 0 1 C0 0.67 0 0.34 0 0 Z " fill="#000100" transform="translate(1169,455)"/>
<path d="M0 0 C19.14 0 38.28 0 58 0 C58 0.33 58 0.66 58 1 C38.86 1 19.72 1 0 1 C0 0.67 0 0.34 0 0 Z " fill="#000100" transform="translate(635,455)"/>
<path d="M0 0 C19.14 0 38.28 0 58 0 C58 0.33 58 0.66 58 1 C38.86 1 19.72 1 0 1 C0 0.67 0 0.34 0 0 Z " fill="#000100" transform="translate(508,455)"/>
<path d="M0 0 C19.14 0 38.28 0 58 0 C58 0.33 58 0.66 58 1 C38.86 1 19.72 1 0 1 C0 0.67 0 0.34 0 0 Z " fill="#000100" transform="translate(199,455)"/>
<path d="M0 0 C18.81 0 37.62 0 57 0 C57 0.33 57 0.66 57 1 C38.19 1 19.38 1 0 1 C0 0.67 0 0.34 0 0 Z " fill="#000100" transform="translate(754,455)"/>
<path d="M0 0 C18.48 0 36.96 0 56 0 C56 0.33 56 0.66 56 1 C37.52 1 19.04 1 0 1 C0 0.67 0 0.34 0 0 Z " fill="#000100" transform="translate(8,455)"/>
<path d="M0 0 C0.33 0 0.66 0 1 0 C1 8.91 1 17.82 1 27 C0.34 27 -0.32 27 -1 27 C-2.52 8 -2.52 8 0 0 Z " fill="#84B6A9" transform="translate(910,204)"/>
<path d="M0 0 C17.16 0 34.32 0 52 0 C52 0.33 52 0.66 52 1 C34.84 1 17.68 1 0 1 C0 0.67 0 0.34 0 0 Z " fill="#000100" transform="translate(1045,455)"/>
<path d="M0 0 C0.66 0.33 1.32 0.66 2 1 C1.32 1.74 0.64 2.49 -0.06 3.25 C-0.7 4.16 -1.34 5.06 -2 6 C-1.81 6.66 -1.63 7.32 -1.44 8 C-1.29 8.66 -1.15 9.32 -1 10 C-3.31 12.75 -3.31 12.75 -6 15 C-6.66 15 -7.32 15 -8 15 C-8.33 15.66 -8.66 16.32 -9 17 C-9.99 17 -10.98 17 -12 17 C-10.93 14.51 -9.96 12.96 -8 11.06 C-5.87 9.12 -5.87 9.12 -5 6.5 C-3.84 3.6 -2.3 2.07 0 0 Z " fill="#538178" transform="translate(935,304)"/>
<path d="M0 0 C16.83 0 33.66 0 51 0 C51 0.33 51 0.66 51 1 C34.17 1 17.34 1 0 1 C0 0.67 0 0.34 0 0 Z " fill="#8FC5B7" transform="translate(106,5)"/>
<path d="M0 0 C16.17 0 32.34 0 49 0 C49 0.33 49 0.66 49 1 C32.83 1 16.66 1 0 1 C0 0.67 0 0.34 0 0 Z " fill="#8FC5B8" transform="translate(513,5)"/>
<path d="M0 0 C1.65 0 3.3 0 5 0 C5.23 0.56 5.45 1.11 5.69 1.69 C7.36 4.64 9.55 6.67 12 9 C12.66 9.66 13.32 10.32 14 11 C13.67 11.99 13.34 12.98 13 14 C10.83 11.86 8.66 9.71 6.5 7.56 C5.88 6.95 5.26 6.34 4.62 5.71 C4.03 5.13 3.45 4.54 2.84 3.94 C2.03 3.13 2.03 3.13 1.19 2.31 C0 1 0 1 0 0 Z " fill="#5D7B72" transform="translate(414,292)"/>
<path d="M0 0 C0.33 0 0.66 0 1 0 C1 13.86 1 27.72 1 42 C0.67 42 0.34 42 0 42 C0 28.14 0 14.28 0 0 Z " fill="#000100" transform="translate(1277,136)"/>
<path d="M0 0 C0.33 0 0.66 0 1 0 C1 13.86 1 27.72 1 42 C0.67 42 0.34 42 0 42 C0 28.14 0 14.28 0 0 Z " fill="#000100" transform="translate(1277,28)"/>
<path d="M0 0 C4.55 3.8 9 7.61 13 12 C13 12.99 13 13.98 13 15 C12.34 15 11.68 15 11 15 C9.64 13.36 8.31 11.68 7 10 C5.35 8.31 3.69 6.64 2 5 C1.34 4.34 0.68 3.68 0 3 C0 2.01 0 1.02 0 0 Z " fill="#74988E" transform="translate(304,428)"/>
<path d="M0 0 C0.66 0.33 1.32 0.66 2 1 C-2.62 5.62 -7.24 10.24 -12 15 C-12.66 14.67 -13.32 14.34 -14 14 C-12.55 12.33 -11.09 10.66 -9.62 9 C-8.81 8.07 -8 7.14 -7.16 6.19 C-6.45 5.47 -5.74 4.74 -5 4 C-4.34 4 -3.68 4 -3 4 C-3 3.34 -3 2.68 -3 2 C-2.01 1.34 -1.02 0.68 0 0 Z " fill="#527168" transform="translate(839,147)"/>
<path d="M0 0 C0.33 0.66 0.66 1.32 1 2 C-0.98 7.23 -3.67 9.73 -8 13 C-8.78 11.3 -8.78 11.3 -9 9 C-7.13 6.64 -7.13 6.64 -4.56 4.25 C-3.72 3.45 -2.87 2.65 -2 1.83 C-1.34 1.22 -0.68 0.62 0 0 Z " fill="#56746B" transform="translate(1025,388)"/>
<path d="M0 0 C4.31 0.48 6.02 1.6 8.75 4.94 C9.34 5.65 9.94 6.36 10.55 7.09 C12 9 12 9 13 11 C12.67 11.66 12.34 12.32 12 13 C11.34 13 10.68 13 10 13 C9.67 12.01 9.34 11.02 9 10 C6.7 7.51 4.43 5.31 1.69 3.31 C1.13 2.88 0.57 2.45 0 2 C0 1.34 0 0.68 0 0 Z " fill="#59776E" transform="translate(429,307)"/>
<path d="M0 0 C3.4 1.47 5.65 3.38 8.25 6 C8.96 6.7 9.66 7.4 10.39 8.12 C12 10 12 10 12 12 C7.16 9.95 2.96 6.96 0.62 2.19 C0.42 1.47 0.21 0.74 0 0 Z " fill="#72958B" transform="translate(330,287)"/>
<path d="M0 0 C11.55 0 23.1 0 35 0 C35 0.33 35 0.66 35 1 C23.45 1 11.9 1 0 1 C0 0.67 0 0.34 0 0 Z " fill="#99D2C4" transform="translate(1131,179)"/>
<path d="M0 0 C0.33 0.66 0.66 1.32 1 2 C1.66 2.33 2.32 2.66 3 3 C1.35 4.32 -0.3 5.64 -2 7 C-2 6.01 -2 5.02 -2 4 C-3.32 5.32 -4.64 6.64 -6 8 C-6.99 7.67 -7.98 7.34 -9 7 C-6.03 4.69 -3.06 2.38 0 0 Z " fill="#5E8076" transform="translate(578,155)"/>
<path d="M0 0 C2.64 0 5.28 0 8 0 C8.33 1.65 8.66 3.3 9 5 C8.34 5 7.68 5 7 5 C7 4.34 7 3.68 7 3 C4.69 2.67 2.38 2.34 0 2 C0 1.34 0 0.68 0 0 Z " fill="#587C73" transform="translate(1267,135)"/>
<path d="M0 0 C7.26 0 14.52 0 22 0 C22 0.33 22 0.66 22 1 C14.74 1 7.48 1 0 1 C0 0.67 0 0.34 0 0 Z " fill="#000100" transform="translate(362,460)"/>
<path d="M0 0 C7.26 0 14.52 0 22 0 C22 0.33 22 0.66 22 1 C14.74 1 7.48 1 0 1 C0 0.67 0 0.34 0 0 Z " fill="#000100" transform="translate(850,192)"/>
<path d="M0 0 C0.33 0 0.66 0 1 0 C1 6.6 1 13.2 1 20 C0.67 20 0.34 20 0 20 C0 13.4 0 6.8 0 0 Z " fill="#83B5A8" transform="translate(1030,229)"/>
<path d="M0 0 C0.33 0 0.66 0 1 0 C1 5.94 1 11.88 1 18 C0.67 18 0.34 18 0 18 C0 12.06 0 6.12 0 0 Z " fill="#BAF0E3" transform="translate(1096,428)"/>
<path d="M0 0 C5.61 0 11.22 0 17 0 C17 0.33 17 0.66 17 1 C11.39 1 5.78 1 0 1 C0 0.67 0 0.34 0 0 Z " fill="#BAF0E3" transform="translate(942,236)"/>
<path d="M0 0 C5.61 0 11.22 0 17 0 C17 0.33 17 0.66 17 1 C11.39 1 5.78 1 0 1 C0 0.67 0 0.34 0 0 Z " fill="#000100" transform="translate(909,235)"/>
<path d="M0 0 C0.33 0 0.66 0 1 0 C1 5.61 1 11.22 1 17 C0.67 17 0.34 17 0 17 C0 11.39 0 5.78 0 0 Z " fill="#000100" transform="translate(813,139)"/>
<path d="M0 0 C4.95 0 9.9 0 15 0 C15 0.33 15 0.66 15 1 C10.05 1 5.1 1 0 1 C0 0.67 0 0.34 0 0 Z " fill="#000100" transform="translate(367,176)"/>
<path d="M0 0 C3.96 0 7.92 0 12 0 C12 0.33 12 0.66 12 1 C8.04 1 4.08 1 0 1 C0 0.67 0 0.34 0 0 Z " fill="#000100" transform="translate(996,176)"/>
<path d="M0 0 C3.63 0 7.26 0 11 0 C11 0.33 11 0.66 11 1 C7.37 1 3.74 1 0 1 C0 0.67 0 0.34 0 0 Z " fill="#000100" transform="translate(1266,70)"/>
<path d="M0 0 C0.33 0 0.66 0 1 0 C1 3.3 1 6.6 1 10 C0.67 10 0.34 10 0 10 C0 6.7 0 3.4 0 0 Z " fill="#9BD4C6" transform="translate(287,207)"/>
<path d="M0 0 C2.97 0 5.94 0 9 0 C9 0.33 9 0.66 9 1 C6.03 1 3.06 1 0 1 C0 0.67 0 0.34 0 0 Z " fill="#000100" transform="translate(964,460)"/>
<path d="M0 0 C0.33 0 0.66 0 1 0 C1 2.64 1 5.28 1 8 C0.67 8 0.34 8 0 8 C0 5.36 0 2.72 0 0 Z " fill="#000100" transform="translate(1098,441)"/>
<path d="M0 0 C0.33 0 0.66 0 1 0 C1 2.64 1 5.28 1 8 C0.67 8 0.34 8 0 8 C0 5.36 0 2.72 0 0 Z " fill="#000100" transform="translate(458,208)"/>
<path d="M0 0 C0.66 0.33 1.32 0.66 2 1 C1.01 1.99 0.02 2.98 -1 4 C-1.66 3.67 -2.32 3.34 -3 3 C-2.01 2.01 -1.02 1.02 0 0 Z " fill="#25342E" transform="translate(930,154)"/>
<path d="M0 0 C0.33 0 0.66 0 1 0 C1 2.31 1 4.62 1 7 C0.67 7 0.34 7 0 7 C0 4.69 0 2.38 0 0 Z " fill="#85B7AA" transform="translate(287,199)"/>
<path d="M0 0 C0.33 0 0.66 0 1 0 C1 1.98 1 3.96 1 6 C0.67 6 0.34 6 0 6 C0 4.02 0 2.04 0 0 Z " fill="#000100" transform="translate(78,388)"/>
<path d="M0 0 C0.33 0 0.66 0 1 0 C1 1.98 1 3.96 1 6 C0.67 6 0.34 6 0 6 C0 4.02 0 2.04 0 0 Z " fill="#000100" transform="translate(108,228)"/>
<path d="M0 0 C0.33 0 0.66 0 1 0 C1 1.98 1 3.96 1 6 C0.67 6 0.34 6 0 6 C0 4.02 0 2.04 0 0 Z " fill="#000100" transform="translate(694,180)"/>
<path d="M0 0 C1.65 0 3.3 0 5 0 C5 0.33 5 0.66 5 1 C3.35 1 1.7 1 0 1 C0 0.67 0 0.34 0 0 Z " fill="#9BD4C6" transform="translate(382,458)"/>
<path d="M0 0 C0.33 0 0.66 0 1 0 C1 1.65 1 3.3 1 5 C0.67 5 0.34 5 0 5 C0 3.35 0 1.7 0 0 Z " fill="#000100" transform="translate(257,446)"/>
<path d="M0 0 C0.33 0 0.66 0 1 0 C1 1.65 1 3.3 1 5 C0.67 5 0.34 5 0 5 C0 3.35 0 1.7 0 0 Z " fill="#000100" transform="translate(249,409)"/>
<path d="M0 0 C0.33 0 0.66 0 1 0 C1 1.65 1 3.3 1 5 C0.67 5 0.34 5 0 5 C0 3.35 0 1.7 0 0 Z " fill="#000100" transform="translate(81,374)"/>
<path d="M0 0 C0.33 0 0.66 0 1 0 C1 1.65 1 3.3 1 5 C0.67 5 0.34 5 0 5 C0 3.35 0 1.7 0 0 Z " fill="#000100" transform="translate(241,371)"/>
<path d="M0 0 C1.65 0 3.3 0 5 0 C5 0.33 5 0.66 5 1 C3.35 1 1.7 1 0 1 C0 0.67 0 0.34 0 0 Z " fill="#000100" transform="translate(415,230)"/>
<path d="M0 0 C1.65 0 3.3 0 5 0 C5 0.33 5 0.66 5 1 C3.35 1 1.7 1 0 1 C0 0.67 0 0.34 0 0 Z " fill="#000100" transform="translate(888,197)"/>
<path d="M0 0 C0.33 0 0.66 0 1 0 C1 1.65 1 3.3 1 5 C0.67 5 0.34 5 0 5 C0 3.35 0 1.7 0 0 Z " fill="#000100" transform="translate(116,185)"/>
<path d="M0 0 C0.33 0 0.66 0 1 0 C1 1.65 1 3.3 1 5 C0.67 5 0.34 5 0 5 C0 3.35 0 1.7 0 0 Z " fill="#000100" transform="translate(173,54)"/>
<path d="M0 0 C4 1 4 1 4 1 Z " fill="#000100" transform="translate(991,457)"/>
<path d="M0 0 C1 4 1 4 1 4 Z " fill="#000100" transform="translate(70,432)"/>
<path d="M0 0 C1 4 1 4 1 4 Z " fill="#141C19" transform="translate(461,389)"/>
<path d="M0 0 C1 4 1 4 1 4 Z " fill="#000100" transform="translate(230,320)"/>
<path d="M0 0 C1 4 1 4 1 4 Z " fill="#000100" transform="translate(691,166)"/>
<path d="M0 0 C1 4 1 4 1 4 Z " fill="#000100" transform="translate(192,142)"/>
<path d="M0 0 C0.66 0.66 1.32 1.32 2 2 C1.34 2 0.68 2 0 2 C0 1.34 0 0.68 0 0 Z " fill="#18231E" transform="translate(5,453)"/>
<path d="" fill="#A5DDCF" transform="translate(0,0)"/>
<path d="" fill="#000100" transform="translate(0,0)"/>
<path d="" fill="#000100" transform="translate(0,0)"/>
<path d="" fill="#000100" transform="translate(0,0)"/>
<path d="" fill="#000100" transform="translate(0,0)"/>
<path d="" fill="#000100" transform="translate(0,0)"/>
<path d="M0 0 C3 1 3 1 3 1 Z " fill="#000100" transform="translate(448,219)"/>
<path d="" fill="#000100" transform="translate(0,0)"/>
<path d="" fill="#000100" transform="translate(0,0)"/>
<path d="M0 0 C0.33 0.66 0.66 1.32 1 2 C0.34 1.67 -0.32 1.34 -1 1 C-0.67 0.67 -0.34 0.34 0 0 Z " fill="#56F4EF" transform="translate(357,180)"/>
<path d="" fill="#000100" transform="translate(0,0)"/>
<path d="" fill="#000100" transform="translate(0,0)"/>
<path d="" fill="#000100" transform="translate(0,0)"/>
<path d="" fill="#0C120F" transform="translate(0,0)"/>
<path d="M0 0 C2 1 2 1 2 1 Z " fill="#000100" transform="translate(401,457)"/>
<path d="M0 0 C2 1 2 1 2 1 Z " fill="#000100" transform="translate(345,457)"/>
<path d="M0 0 C2 1 2 1 2 1 Z " fill="#000100" transform="translate(339,455)"/>
<path d="M0 0 C2 1 2 1 2 1 Z " fill="#000100" transform="translate(1097,454)"/>
<path d="M0 0 C2 1 2 1 2 1 Z " fill="#000100" transform="translate(416,452)"/>
<path d="M0 0 C2 1 2 1 2 1 Z " fill="#000100" transform="translate(331,452)"/>
<path d="M0 0 C2 1 2 1 2 1 Z " fill="#24F7F6" transform="translate(318,444)"/>
<path d="M0 0 C2 1 2 1 2 1 Z " fill="#BAF0E3" transform="translate(436,439)"/>
<path d="" fill="#000100" transform="translate(0,0)"/>
<path d="" fill="#000100" transform="translate(0,0)"/>
<path d="" fill="#67988C" transform="translate(0,0)"/>
<path d="" fill="#24F7F6" transform="translate(0,0)"/>
<path d="M0 0 C2 1 2 1 2 1 Z " fill="#BAF0E3" transform="translate(1016,301)"/>
<path d="M0 0 C2 1 2 1 2 1 Z " fill="#24F7F6" transform="translate(1022,298)"/>
<path d="" fill="#BAF0E3" transform="translate(0,0)"/>
<path d="" fill="#24F7F6" transform="translate(0,0)"/>
<path d="M0 0 C2 1 2 1 2 1 Z " fill="#000100" transform="translate(440,222)"/>
<path d="M0 0 C2 1 2 1 2 1 Z " fill="#9BD4C6" transform="translate(448,217)"/>
<path d="" fill="#000100" transform="translate(0,0)"/>
<path d="" fill="#000100" transform="translate(0,0)"/>
<path d="" fill="#25342E" transform="translate(0,0)"/>
<path d="" fill="#121A17" transform="translate(0,0)"/>
<path d="M0 0 C2 1 2 1 2 1 Z " fill="#000100" transform="translate(836,197)"/>
<path d="M0 0 C2 1 2 1 2 1 Z " fill="#000100" transform="translate(881,195)"/>
<path d="" fill="#000100" transform="translate(0,0)"/>
<path d="" fill="#000100" transform="translate(0,0)"/>
<path d="" fill="#121A17" transform="translate(0,0)"/>
<path d="M0 0 C2 1 2 1 2 1 Z " fill="#000100" transform="translate(621,181)"/>
<path d="M0 0 C2 1 2 1 2 1 Z " fill="#000100" transform="translate(595,181)"/>
<path d="" fill="#000100" transform="translate(0,0)"/>
<path d="" fill="#000100" transform="translate(0,0)"/>
<path d="M0 0 C2 1 2 1 2 1 Z " fill="#121A17" transform="translate(386,130)"/>
<path d="" fill="#000100" transform="translate(0,0)"/>
<path d="" fill="#000100" transform="translate(0,0)"/>
<path d="" fill="#67988C" transform="translate(0,0)"/>
<path d="M0 0 C2 1 2 1 2 1 Z " fill="#000100" transform="translate(1244,70)"/>
<path d="M0 0 C2 1 2 1 2 1 Z " fill="#000100" transform="translate(1253,68)"/>
<path d="M0 0 C2 1 2 1 2 1 Z " fill="#536D64" transform="translate(1180,43)"/>
<path d="" fill="#000100" transform="translate(0,0)"/>
<path d="" fill="#000100" transform="translate(0,0)"/>
<path d="M0 0 C2 1 2 1 2 1 Z " fill="#67988C" transform="translate(509,5)"/>
<path d="" fill="#24F7F6" transform="translate(0,0)"/>
<path d="" fill="#000100" transform="translate(0,0)"/>
<path d="" fill="#000100" transform="translate(0,0)"/>
<path d="" fill="#000100" transform="translate(0,0)"/>
<path d="" fill="#25342E" transform="translate(0,0)"/>
<path d="" fill="#25342E" transform="translate(0,0)"/>
<path d="" fill="#25342E" transform="translate(0,0)"/>
<path d="" fill="#25342E" transform="translate(0,0)"/>
<path d="" fill="#000100" transform="translate(0,0)"/>
<path d="" fill="#24F7F6" transform="translate(0,0)"/>
<path d="" fill="#000100" transform="translate(0,0)"/>
<path d="" fill="#000100" transform="translate(0,0)"/>
<path d="" fill="#000100" transform="translate(0,0)"/>
<path d="" fill="#24F7F6" transform="translate(0,0)"/>
<path d="" fill="#24F7F6" transform="translate(0,0)"/>
<path d="" fill="#000100" transform="translate(0,0)"/>
<path d="" fill="#000100" transform="translate(0,0)"/>
<path d="" fill="#000100" transform="translate(0,0)"/>
<path d="" fill="#24F7F6" transform="translate(0,0)"/>
<path d="" fill="#000100" transform="translate(0,0)"/>
<path d="" fill="#25342E" transform="translate(0,0)"/>
<path d="" fill="#9BD4C6" transform="translate(0,0)"/>
<path d="" fill="#000100" transform="translate(0,0)"/>
<path d="" fill="#24F7F6" transform="translate(0,0)"/>
<path d="" fill="#24F7F6" transform="translate(0,0)"/>
<path d="" fill="#000100" transform="translate(0,0)"/>
<path d="" fill="#000100" transform="translate(0,0)"/>
<path d="" fill="#000100" transform="translate(0,0)"/>
<path d="" fill="#000100" transform="translate(0,0)"/>
<path d="" fill="#25342E" transform="translate(0,0)"/>
<path d="" fill="#000100" transform="translate(0,0)"/>
<path d="" fill="#000100" transform="translate(0,0)"/>
<path d="" fill="#000100" transform="translate(0,0)"/>
<path d="" fill="#000100" transform="translate(0,0)"/>
<path d="" fill="#24F7F6" transform="translate(0,0)"/>
<path d="" fill="#536D64" transform="translate(0,0)"/>
<path d="" fill="#000100" transform="translate(0,0)"/>
<path d="" fill="#25342E" transform="translate(0,0)"/>
<path d="" fill="#25342E" transform="translate(0,0)"/>
<path d="" fill="#24F7F6" transform="translate(0,0)"/>
<path d="" fill="#000100" transform="translate(0,0)"/>
<path d="" fill="#24F7F6" transform="translate(0,0)"/>
<path d="" fill="#24F7F6" transform="translate(0,0)"/>
<path d="" fill="#24F7F6" transform="translate(0,0)"/>
<path d="" fill="#24F7F6" transform="translate(0,0)"/>
<path d="" fill="#24F7F6" transform="translate(0,0)"/>
<path d="" fill="#24F7F6" transform="translate(0,0)"/>
<path d="" fill="#000100" transform="translate(0,0)"/>
<path d="" fill="#BAF0E3" transform="translate(0,0)"/>
<path d="" fill="#BAF0E3" transform="translate(0,0)"/>
<path d="" fill="#24F7F6" transform="translate(0,0)"/>
<path d="" fill="#24F7F6" transform="translate(0,0)"/>
<path d="" fill="#000100" transform="translate(0,0)"/>
<path d="" fill="#000100" transform="translate(0,0)"/>
<path d="" fill="#67988C" transform="translate(0,0)"/>
<path d="" fill="#9BD4C6" transform="translate(0,0)"/>
<path d="" fill="#536D64" transform="translate(0,0)"/>
<path d="" fill="#BAF0E3" transform="translate(0,0)"/>
<path d="" fill="#85B7AA" transform="translate(0,0)"/>
<path d="" fill="#536D64" transform="translate(0,0)"/>
<path d="" fill="#000100" transform="translate(0,0)"/>
<path d="" fill="#BAF0E3" transform="translate(0,0)"/>
<path d="" fill="#BAF0E3" transform="translate(0,0)"/>
<path d="" fill="#85B7AA" transform="translate(0,0)"/>
<path d="" fill="#536D64" transform="translate(0,0)"/>
<path d="" fill="#000100" transform="translate(0,0)"/>
<path d="" fill="#24F7F6" transform="translate(0,0)"/>
<path d="" fill="#BAF0E3" transform="translate(0,0)"/>
<path d="" fill="#85B7AA" transform="translate(0,0)"/>
<path d="" fill="#000100" transform="translate(0,0)"/>
<path d="" fill="#24F7F6" transform="translate(0,0)"/>
<path d="" fill="#000100" transform="translate(0,0)"/>
<path d="" fill="#BAF0E3" transform="translate(0,0)"/>
<path d="" fill="#000100" transform="translate(0,0)"/>
<path d="" fill="#24F7F6" transform="translate(0,0)"/>
<path d="" fill="#000100" transform="translate(0,0)"/>
<path d="" fill="#000100" transform="translate(0,0)"/>
<path d="" fill="#BAF0E3" transform="translate(0,0)"/>
<path d="" fill="#536D64" transform="translate(0,0)"/>
<path d="" fill="#BAF0E3" transform="translate(0,0)"/>
<path d="" fill="#000100" transform="translate(0,0)"/>
<path d="" fill="#000100" transform="translate(0,0)"/>
<path d="" fill="#24F7F6" transform="translate(0,0)"/>
<path d="" fill="#000100" transform="translate(0,0)"/>
<path d="" fill="#24F7F6" transform="translate(0,0)"/>
<path d="" fill="#000100" transform="translate(0,0)"/>
<path d="" fill="#000100" transform="translate(0,0)"/>
<path d="" fill="#000100" transform="translate(0,0)"/>
<path d="" fill="#000100" transform="translate(0,0)"/>
<path d="" fill="#24F7F6" transform="translate(0,0)"/>
<path d="" fill="#000100" transform="translate(0,0)"/>
<path d="" fill="#000100" transform="translate(0,0)"/>
<path d="" fill="#000100" transform="translate(0,0)"/>
<path d="" fill="#000100" transform="translate(0,0)"/>
<path d="" fill="#000100" transform="translate(0,0)"/>
<path d="" fill="#24F7F6" transform="translate(0,0)"/>
<path d="" fill="#000100" transform="translate(0,0)"/>
<path d="" fill="#25342E" transform="translate(0,0)"/>
<path d="" fill="#24F7F6" transform="translate(0,0)"/>
<path d="" fill="#000100" transform="translate(0,0)"/>
<path d="" fill="#000100" transform="translate(0,0)"/>
<path d="" fill="#BAF0E3" transform="translate(0,0)"/>
<path d="" fill="#25342E" transform="translate(0,0)"/>
<path d="" fill="#25342E" transform="translate(0,0)"/>
<path d="" fill="#000100" transform="translate(0,0)"/>
<path d="" fill="#24F7F6" transform="translate(0,0)"/>
<path d="" fill="#25342E" transform="translate(0,0)"/>
<path d="" fill="#000100" transform="translate(0,0)"/>
<path d="" fill="#25342E" transform="translate(0,0)"/>
<path d="" fill="#25342E" transform="translate(0,0)"/>
<path d="" fill="#536D64" transform="translate(0,0)"/>
<path d="" fill="#24F7F6" transform="translate(0,0)"/>
<path d="" fill="#000100" transform="translate(0,0)"/>
<path d="" fill="#000100" transform="translate(0,0)"/>
<path d="" fill="#000100" transform="translate(0,0)"/>
<path d="" fill="#000100" transform="translate(0,0)"/>
</svg>
