<svg xmlns="http://www.w3.org/2000/svg" xmlns:xlink="http://www.w3.org/1999/xlink" version="1.1" width="256" height="256" viewBox="0 0 256 256" xml:space="preserve">

<defs>
</defs>
<g style="stroke: none; stroke-width: 0; stroke-dasharray: none; stroke-linecap: butt; stroke-linejoin: miter; stroke-miterlimit: 10; fill: none; fill-rule: nonzero; opacity: 1;" transform="translate(1.4065934065934016 1.4065934065934016) scale(2.81 2.81)" >
	<path d="M 76.887 60.514 h -2.579 c -0.828 0 -1.5 -0.672 -1.5 -1.5 s 0.672 -1.5 1.5 -1.5 h 2.579 C 82.463 57.514 87 52.977 87 47.4 c 0 -5.335 -4.179 -9.763 -9.514 -10.08 l -1.581 -0.094 l 0.18 -1.573 c 0.1 -0.872 0.147 -1.652 0.147 -2.385 c 0 -11.438 -9.305 -20.742 -20.742 -20.742 c -7.165 0 -13.729 3.641 -17.559 9.74 l -0.745 1.186 l -1.234 -0.662 c -2.296 -1.231 -4.89 -1.882 -7.503 -1.882 c -8.491 0 -15.457 6.65 -15.858 15.14 l -0.057 1.197 l -1.18 0.209 C 6.514 38.313 3 42.497 3 47.4 c 0 5.576 4.537 10.113 10.113 10.113 h 3.069 c 0.829 0 1.5 0.672 1.5 1.5 s -0.671 1.5 -1.5 1.5 h -3.069 C 5.883 60.514 0 54.631 0 47.4 c 0 -5.966 4.007 -11.109 9.683 -12.645 c 1.025 -9.536 9.057 -16.849 18.766 -16.849 c 2.648 0 5.282 0.563 7.693 1.637 c 4.46 -6.298 11.597 -10.019 19.349 -10.019 c 13.092 0 23.742 10.651 23.742 23.742 c 0 0.401 -0.013 0.813 -0.037 1.239 C 85.365 35.606 90 41 90 47.4 C 90 54.631 84.117 60.514 76.887 60.514 z" style="stroke: none; stroke-width: 1; stroke-dasharray: none; stroke-linecap: butt; stroke-linejoin: miter; stroke-miterlimit: 10; fill: rgb(37,50,74); fill-rule: nonzero; opacity: 1;" transform=" matrix(1 0 0 1 0 0) " stroke-linecap="round" />
	<path d="M 35.3 80.477 c -0.656 0 -1.315 -0.104 -1.957 -0.313 c -1.599 -0.521 -2.9 -1.633 -3.663 -3.133 l -8.41 -16.529 c -1.574 -3.096 -0.337 -6.894 2.757 -8.468 l 27.825 -14.156 c 1.499 -0.763 3.207 -0.895 4.805 -0.375 c 1.599 0.521 2.899 1.633 3.662 3.132 l 8.41 16.529 c 1.574 3.096 0.338 6.895 -2.758 8.469 L 38.148 79.789 C 37.25 80.246 36.278 80.477 35.3 80.477 z M 54.701 40.194 c -0.502 0 -1.012 0.115 -1.489 0.358 L 25.388 54.708 c -1.62 0.824 -2.268 2.813 -1.444 4.434 l 8.41 16.529 c 0.399 0.785 1.081 1.368 1.918 1.641 c 0.838 0.273 1.731 0.204 2.515 -0.196 L 64.612 62.96 c 0.784 -0.399 1.367 -1.08 1.64 -1.918 s 0.203 -1.731 -0.196 -2.517 l -8.41 -16.529 C 57.064 40.854 55.903 40.194 54.701 40.194 z" style="stroke: none; stroke-width: 1; stroke-dasharray: none; stroke-linecap: butt; stroke-linejoin: miter; stroke-miterlimit: 10; fill: rgb(64,99,163); fill-rule: nonzero; opacity: 1;" transform=" matrix(1 0 0 1 0 0) " stroke-linecap="round" />
	<path d="M 47.616 65.474 c -0.111 0 -0.223 -0.012 -0.334 -0.037 l -18.019 -4.107 c -0.808 -0.185 -1.313 -0.988 -1.129 -1.796 c 0.185 -0.809 0.991 -1.313 1.796 -1.13 l 16.799 3.83 l 6.795 -15.834 c 0.326 -0.762 1.205 -1.116 1.971 -0.787 c 0.761 0.327 1.113 1.208 0.787 1.97 l -7.288 16.982 C 48.753 65.125 48.205 65.474 47.616 65.474 z" style="stroke: none; stroke-width: 1; stroke-dasharray: none; stroke-linecap: butt; stroke-linejoin: miter; stroke-miterlimit: 10; fill: rgb(64,99,163); fill-rule: nonzero; opacity: 1;" transform=" matrix(1 0 0 1 0 0) " stroke-linecap="round" />
	<path d="M 67.472 34.742 c -0.828 0 -1.5 -0.671 -1.5 -1.5 c 0 -5.78 -4.702 -10.482 -10.481 -10.482 c -0.828 0 -1.5 -0.671 -1.5 -1.5 s 0.672 -1.5 1.5 -1.5 c 7.434 0 13.481 6.048 13.481 13.482 C 68.972 34.071 68.3 34.742 67.472 34.742 z" style="stroke: none; stroke-width: 1; stroke-dasharray: none; stroke-linecap: butt; stroke-linejoin: miter; stroke-miterlimit: 10; fill: rgb(37,50,74); fill-rule: nonzero; opacity: 1;" transform=" matrix(1 0 0 1 0 0) " stroke-linecap="round" />
	<path d="M 21.859 37.451 c -0.024 0 -0.048 0 -0.072 -0.001 c -0.828 -0.04 -1.467 -0.742 -1.428 -1.569 c 0.205 -4.33 3.758 -7.721 8.089 -7.721 c 0.829 0 1.5 0.671 1.5 1.5 s -0.671 1.5 -1.5 1.5 c -2.727 0 -4.963 2.136 -5.092 4.862 C 23.319 36.825 22.655 37.451 21.859 37.451 z" style="stroke: none; stroke-width: 1; stroke-dasharray: none; stroke-linecap: butt; stroke-linejoin: miter; stroke-miterlimit: 10; fill: rgb(37,50,74); fill-rule: nonzero; opacity: 1;" transform=" matrix(1 0 0 1 0 0) " stroke-linecap="round" />
</g>
</svg>